<svg width="1690" height="1072" viewBox="0 0 1690 1072" fill="none" xmlns="http://www.w3.org/2000/svg">
<path d="M487.088 124.626C491.374 122.97 498.887 122.248 505.253 127.792C509.882 131.823 510.902 136.841 511.151 138.135C511.525 140.07 511.539 141.741 511.522 142.677C511.482 144.857 510.958 148.424 510.652 150.728C510.234 153.887 509.673 158.214 509.067 163.92C507.856 175.33 506.44 192.436 505.672 216.541C504.899 240.774 504.771 271.483 504.701 300.909C504.632 330.02 504.62 358.037 504.066 376.512C508.035 375.73 511.44 376.329 513.424 376.816C517.575 377.836 521.588 379.958 524.834 381.864C531.797 385.952 541.662 392.99 555.15 403.255C570.658 415.058 591.524 431.557 612.12 448.695C613.766 443.852 615.453 438.875 617.177 433.762C621.477 421.011 625.082 409.166 629.159 396.792C632.988 385.173 637.052 373.681 641.473 364.825C643.67 360.423 646.381 355.786 649.79 351.935C653.036 348.269 658.706 343.304 666.986 342.395C675.977 341.408 682.998 345.67 687.476 350.026C691.766 354.199 695.109 359.677 697.884 365.352C698.862 367.353 699.836 369.531 700.806 371.866C706.436 372.788 713.319 373.856 721.836 375.105C739.215 377.653 763.214 380.942 788.478 384.692C782.918 357.703 780.582 348.381 778.261 339.097C775.917 329.721 781.618 320.22 790.994 317.875C800.371 315.532 809.872 321.233 812.216 330.609C815.025 341.845 817.811 353.033 825.365 390.417C838.969 392.644 852.189 394.963 864.185 397.334L868.484 398.198L869.019 398.307L869.547 398.449C904.022 407.753 930.284 415.586 948.418 422.461C957.419 425.874 965.157 429.322 971.097 432.95C974.077 434.77 977.115 436.94 979.732 439.563C982.207 442.045 985.088 445.714 986.539 450.669L986.675 451.153L986.86 451.891C987.731 455.608 987.714 459.715 986.376 463.821C984.995 468.059 982.542 471.271 980.109 473.58C975.613 477.846 969.851 480.289 965.002 481.886C954.635 485.301 940.088 488.156 910.471 488.59C889.516 488.898 868.598 488.718 850.101 488.536C894.31 506.958 958.363 534.336 996.5 549.76C1037.79 566.461 1046.29 568.189 1054.46 570.005C1063.9 572.102 1069.85 581.45 1067.75 590.884C1065.65 600.319 1056.31 606.268 1046.87 604.171C1036.08 601.774 1025.61 599.287 983.378 582.208C949.545 568.524 894.11 544.929 851.583 527.092C856.262 552.966 860.027 575.209 861.445 586.897C861.885 590.521 862.206 593.94 862.185 596.675C862.178 597.585 862.169 600.555 861.109 603.717C860.675 605.011 859.005 609.744 853.954 613.074C847.12 617.579 839.931 616.081 835.848 613.912C832.596 612.184 830.695 609.873 830.049 609.063C829.181 607.974 828.557 606.957 828.17 606.284C827.386 604.921 826.749 603.522 826.276 602.414C825.293 600.113 824.256 597.257 823.223 594.223C819.096 582.106 813.073 561.282 807.164 540.869C804.915 533.097 808.296 525.031 814.903 521.033C814.303 517.765 813.689 514.455 813.069 511.116C798.07 504.998 788.164 501.108 781.378 498.359C777.413 496.752 774.048 495.351 771.577 494.118C770.381 493.521 768.649 492.602 766.96 491.339C765.647 490.358 761.774 487.326 759.998 481.751C758.132 475.892 759.144 469.564 762.802 464.575C765.738 460.57 769.506 458.609 771.521 457.71C775.673 455.858 780.44 455.073 784.101 454.621C789.056 454.009 795.207 453.669 802.131 453.49C799.902 441.969 797.756 431.011 795.816 421.189C766.61 416.738 737.61 412.793 716.758 409.735C715.473 409.546 714.223 409.359 713.006 409.178C713.387 410.562 713.768 411.959 714.147 413.367C719.439 433.071 724.761 456.193 729.864 480.148C740.068 528.046 749.564 580.074 756.308 615.996C759.076 630.74 761.358 642.64 763.23 652.179C767.874 665.582 770.938 677.988 771.711 688.559C771.761 689.246 771.928 691.365 771.716 693.462C771.659 694.023 771.495 695.492 770.934 697.248C770.652 698.127 770.065 699.749 768.894 701.543C767.764 703.275 765.313 706.349 760.908 708.176C750.075 712.67 742.438 705.088 741.442 704.041C739.624 702.131 738.665 700.245 738.399 699.72C737.276 697.51 736.616 695.001 736.359 694.055C735.933 692.479 735.443 690.463 734.881 687.991C733.638 682.524 731.862 674.04 729.372 661.41C727.557 656.338 725.405 650.859 722.904 645.001C714.394 625.065 702.421 602.019 687.875 577.849C686.274 575.188 684.652 572.596 682.989 570.045C682.37 569.618 681.736 569.178 681.085 568.73C666.513 558.7 644.256 543.732 621.663 527.963C606.444 570.753 596.98 594.892 593.776 601.3C589.454 609.945 578.942 613.449 570.298 609.126C561.653 604.804 558.15 594.293 562.472 585.648C564.968 580.655 574.942 555.212 592.008 506.844C587.659 503.666 583.431 500.532 579.385 497.473L579.071 497.236L578.769 496.985C552.784 475.444 529.295 455.961 513.332 440.129C505.435 432.297 498.429 424.446 493.903 416.986C493.79 416.798 493.674 416.606 493.557 416.408C490.417 418.828 486.031 420.656 480.162 419.945C475.294 419.355 471.888 417.037 470.125 415.6C468.255 414.076 466.882 412.434 465.968 411.224C464.142 408.807 462.581 406 461.281 403.442C458.613 398.19 455.529 390.915 452.023 382.262C442.33 358.345 427.911 320.17 415.368 286.42C369.682 340.271 290.983 410.362 246.345 450.347C217.234 476.424 192.979 492.225 170.881 502.896C151.055 512.469 133.336 517.698 117.021 522.462C132.168 526.875 153.403 532.726 182.984 540.614C287.995 568.617 493.928 621.146 603.352 649.972C657.48 664.232 687.037 672.44 700.853 677.511C704.274 678.767 707.699 680.17 710.495 681.803C711.812 682.572 714.039 683.985 716.079 686.209C718.002 688.307 722.019 693.695 720.897 701.466C719.811 708.981 714.713 712.947 712.656 714.312C710.337 715.852 708.073 716.652 706.831 717.049C704.213 717.886 701.315 718.394 699.166 718.738C690.133 720.182 675.218 721.47 659.142 723.125C642.542 724.835 623.527 727.032 604.628 730.362C567.047 736.984 530.477 748.14 492.152 765.153C453.999 782.089 414.96 804.597 344.076 852.674C272.316 901.346 172.934 972.84 111.788 1014.76C81.6603 1035.41 62.3138 1047.81 49.5157 1055.32C36.9929 1062.66 29.6528 1065.99 23.8878 1067.48L15.7999 1069.56L9.09191 1064.59C1.85304 1059.22 1.18048 1051.36 1.59386 1047.27C1.96898 1043.56 3.3021 1040.54 4.05675 1038.96C5.69297 1035.54 8.14571 1031.91 10.1388 1029.04C14.4343 1022.85 18.8404 1016.99 22.4952 1010.89C22.8341 1009.87 23.1729 1008.86 23.5118 1007.84C24.0446 1006.24 24.5794 1004.64 25.1222 1003.01C28.1785 993.843 38.089 988.888 47.2579 991.944C49.7555 992.776 51.9391 994.119 53.7345 995.815C53.5555 991.483 53.3157 986.281 52.9982 980.044C50.9377 939.575 45.6283 855.506 43.9728 818.001C43.5551 808.539 43.3617 801.835 43.3595 797.309C43.3584 795.094 43.4018 793.055 43.5362 791.339C43.6006 790.518 43.7162 789.342 43.9698 788.074C44.0966 787.44 44.3233 786.446 44.7306 785.298C45.059 784.373 45.9292 782.092 47.8722 779.755C49.9772 777.224 54.7547 773.126 62.0792 773.392C68.5766 773.628 72.6109 777.226 74.0118 778.642C76.7304 781.39 77.8925 784.442 78.0353 784.789C78.7737 786.581 79.2537 788.463 79.503 789.47C80.0973 791.871 80.7228 795.019 81.2345 797.578C82.1741 802.276 81.1362 806.91 78.6974 810.621C78.7662 812.407 78.8465 814.35 78.9396 816.458C80.6046 854.177 85.831 936.582 87.9532 978.265C88.1393 981.92 88.298 985.265 88.4386 988.324C89.6065 987.526 90.7937 986.716 91.9982 985.89C150.872 945.529 253.79 871.621 324.431 823.708C395.948 775.202 436.987 751.348 477.952 733.164C518.747 715.055 558.039 703.031 598.555 695.892C607.415 694.331 616.247 693.012 624.795 691.876C615.752 689.453 605.665 686.775 594.436 683.817C485.819 655.203 278.724 602.368 173.965 574.432C121.739 560.505 93.9286 552.524 79.7218 547.392C76.1066 546.086 72.9651 544.822 70.3487 543.543C68.0473 542.419 64.7343 540.622 61.9484 537.795C58.6124 534.41 54.7416 527.981 56.6681 519.728C58.0579 513.775 62.0036 510.153 62.5812 509.588L62.9845 509.201C67.2068 505.211 73.0202 501.82 78.8702 499.031C85.275 495.977 93.0881 493.009 101.973 490.398C120.364 484.994 136.798 480.487 155.661 471.378C174.369 462.345 195.933 448.515 222.992 424.277C269.338 382.763 348.034 312.576 391.23 260.75C394.708 256.577 398.066 252.437 401.314 248.346C400.785 246.904 400.266 245.496 399.765 244.125C385.979 206.467 382.758 196.817 379.529 187.13C376.473 177.962 381.428 168.051 390.597 164.995C399.766 161.938 409.677 166.893 412.734 176.062C415.283 183.709 417.841 191.381 426.333 214.803C439.739 195.664 450.321 178.56 458.366 164.951C464.906 153.887 471.021 142.932 474.166 137.71C475.074 136.204 475.995 134.724 476.883 133.421C477.595 132.377 478.949 130.44 480.736 128.719C481.487 127.997 483.675 125.945 487.088 124.626ZM1493.23 8.84521C1494.68 6.93018 1501.3 -0.826936 1512.3 2.19482C1517.07 3.50531 1519.96 6.39657 1521.33 8.04053C1522.75 9.75738 1523.57 11.3936 1524 12.3423C1525.43 15.5053 1525.91 18.9423 1526.13 20.5767C1526.46 23.0266 1526.73 26.186 1526.96 30.1011C1530.68 30.1766 1535.77 30.3054 1543.23 30.5308C1560.63 31.0562 1591.7 32.1201 1615.42 34.2993C1639.78 36.5368 1655.96 39.9634 1675.87 46.9458C1684.99 50.1444 1689.79 60.1313 1686.6 69.2515C1683.4 78.3717 1673.41 83.1724 1664.29 79.9741C1647.42 74.0574 1634.1 71.1619 1612.22 69.1528C1589.72 67.0856 1559.67 66.0424 1542.17 65.5142C1535.5 65.3127 1530.8 65.1901 1527.31 65.1147C1526.49 89.111 1523.28 130.569 1513.16 215.733C1498.48 339.214 1470.01 549.061 1454.14 655.678C1446.23 708.779 1441.17 737.328 1437.45 752.254C1436.51 756.05 1435.57 759.321 1434.58 762.064C1433.68 764.553 1432.34 767.761 1430.2 770.631C1428.03 773.538 1422.87 778.811 1414.39 778.755C1407.22 778.708 1402.57 774.639 1401.57 773.778C1393.07 766.472 1384.57 753.917 1375.61 733.544C1366.52 712.869 1356.34 682.703 1345.25 638.625C1329.03 574.094 1305.8 470.599 1293.13 413.584C1280.45 356.487 1278.31 345.809 1276.16 335.091C1274.27 325.614 1280.42 316.395 1289.89 314.5C1299.37 312.604 1308.59 318.751 1310.48 328.228C1312.56 338.583 1314.63 348.979 1327.3 405.994C1339.98 463.092 1363.11 566.11 1379.2 630.091C1390.02 673.115 1399.63 701.227 1407.65 719.453C1407.84 719.895 1408.04 720.33 1408.23 720.759C1411.09 705.076 1414.75 682.575 1419.52 650.523C1435.35 544.208 1463.77 334.705 1478.41 211.602C1490.76 107.665 1492.59 70.4447 1492.57 51.1206C1488.32 47.4231 1485.94 41.7504 1486.69 35.7466C1487.22 31.4982 1487.79 26.9078 1488.38 23.1909C1488.67 21.3496 1489.01 19.3918 1489.42 17.6343C1489.63 16.7627 1489.91 15.6686 1490.3 14.5308C1490.57 13.7152 1491.36 11.4582 1493.01 9.14502L1493.23 8.84521ZM1118.54 346.984C1125.61 345.344 1132.37 346.658 1138.19 349.516L1138.75 349.797L1139.26 350.069C1144.6 352.924 1149.26 357.137 1153.16 361.316C1157.34 365.789 1161.48 371.128 1165.51 376.898C1173.56 388.434 1181.94 402.81 1190.12 417.991C1206.47 448.347 1222.94 483.728 1235.23 509.403C1250.96 542.275 1261.96 562.438 1269.34 574.6C1274.94 583.842 1278.09 587.85 1279.23 589.21C1279.46 589.421 1279.66 589.614 1279.84 589.789C1280.17 590.106 1280.78 590.698 1281.29 591.26C1281.32 591.291 1281.94 591.959 1282.59 592.853C1282.79 593.117 1283.19 593.686 1283.63 594.451C1283.78 594.71 1285.21 597.072 1285.73 600.449C1285.93 602.576 1285.24 608.057 1283.97 611.218C1281.54 614.764 1275.15 619.318 1271.71 620.346C1269.44 620.626 1265.76 620.447 1264.38 620.176C1263.51 619.944 1262.06 619.451 1261.49 619.214C1259.69 618.434 1258.4 617.487 1258.35 617.456C1257.98 617.191 1257.69 616.965 1257.55 616.854C1257.25 616.618 1257.01 616.413 1256.89 616.312C1256.07 615.61 1255.2 614.773 1254.28 613.782C1253.68 613.229 1252.94 612.534 1252.02 611.701C1248.55 608.534 1242.91 603.524 1235.08 596.905C1219.41 583.67 1195.02 564.047 1161.74 539.905C1146.79 529.061 1129.05 518.385 1111.02 508.39C1110.36 521.827 1109.8 532.574 1109.3 540.845C1108.8 548.944 1108.32 555.188 1107.78 559.38C1107.55 561.174 1107.16 563.892 1106.35 566.362C1106.2 566.82 1104.93 571.163 1100.99 574.66C1098.42 576.946 1093.77 579.636 1087.61 579.083C1081.94 578.574 1078.26 575.578 1076.61 573.92C1071.23 568.539 1070.08 560.525 1073.18 554.024C1073.52 551.007 1073.91 546.075 1074.36 538.705C1075.05 527.488 1075.83 511.605 1076.87 490.245C1060.14 481.662 1044.64 474.02 1032.58 467.781C1017.34 459.895 1007.99 455.199 1003.51 452.86C1001.43 451.778 999.021 450.506 997.192 449.228C996.533 448.767 993.804 446.899 991.715 443.562C990.458 441.553 989.232 438.709 989.005 435.171C988.777 431.622 989.641 428.699 990.538 426.696C993.79 419.434 1000.33 417.095 1001.93 416.545C1004.62 415.622 1007.27 415.292 1009.42 415.174C1013.85 414.933 1019.14 415.449 1025.3 416.66C1032.99 418.169 1038.5 424.491 1039.33 431.879C1042.09 433.301 1045.19 434.897 1048.67 436.697C1056.79 440.899 1067.15 446.055 1078.78 451.931C1080.13 430.207 1082.96 405.39 1088.36 386.156C1091.25 375.864 1095.52 364.699 1102.51 356.875C1106.23 352.712 1111.5 348.619 1118.54 346.984ZM664.942 400.202C664.117 402.591 663.27 405.108 662.401 407.747C658.809 418.647 654.52 432.561 650.342 444.948C647.008 454.832 643.809 464.239 640.751 473.174C646.057 477.858 651.135 482.441 655.862 486.837C678.903 508.266 694.131 524.873 706.881 542.935C703.308 524.568 699.523 505.699 695.633 487.44C690.589 463.764 685.412 441.31 680.345 422.446C678.372 415.101 676.457 408.466 674.622 402.615C670.607 401.736 667.674 400.965 664.942 400.202ZM1126.32 383.9C1125.05 386.468 1123.56 390.278 1122.06 395.618C1117.14 413.132 1114.45 438.261 1113.34 460.837C1113.19 463.827 1113.05 466.744 1112.91 469.589C1136.81 482.349 1161.93 496.807 1182.29 511.572C1190.66 517.647 1198.5 523.449 1205.79 528.949C1205.09 527.494 1204.38 526.016 1203.66 524.513C1191.1 498.288 1175.14 463.992 1159.3 434.586C1151.39 419.886 1143.74 406.859 1136.81 396.932C1133.35 391.971 1130.25 388.063 1127.59 385.208C1127.13 384.723 1126.71 384.288 1126.32 383.9ZM832.655 427.127C834.276 435.4 835.997 444.254 837.762 453.412C859.116 453.607 883.612 453.981 909.957 453.594C917.694 453.481 924.104 453.191 929.449 452.792C913.35 447.111 890.772 440.437 860.974 432.388C852.179 430.602 842.619 428.844 832.655 427.127ZM1389.11 365.246C1398.77 365.246 1406.61 373.081 1406.61 382.746C1406.61 392.411 1398.77 400.246 1389.11 400.246H1382.72C1373.06 400.245 1365.22 392.41 1365.22 382.746C1365.22 373.081 1373.06 365.246 1382.72 365.246H1389.11ZM470.828 211.364C462.381 224.429 452.423 238.979 440.839 254.419C449.58 278.103 460.141 306.423 469.62 331.192C469.657 321.558 469.676 311.324 469.701 300.826C469.771 271.499 469.899 240.266 470.691 215.425C470.734 214.05 470.78 212.696 470.828 211.364Z" fill="#006FFF" fill-opacity="0.25"/>
<path d="M487.088 124.626L486.547 123.227L486.547 123.227L487.088 124.626ZM505.253 127.792L506.238 126.66L506.238 126.66L505.253 127.792ZM511.151 138.135L512.624 137.851L512.624 137.851L511.151 138.135ZM511.522 142.677L510.022 142.65V142.65L511.522 142.677ZM510.652 150.728L512.139 150.925H512.139L510.652 150.728ZM509.067 163.92L510.559 164.079V164.079L509.067 163.92ZM505.672 216.541L504.173 216.493V216.493L505.672 216.541ZM504.701 300.909L503.201 300.905V300.905L504.701 300.909ZM504.066 376.512L502.566 376.467L502.51 378.348L504.356 377.984L504.066 376.512ZM513.424 376.816L513.782 375.359V375.359L513.424 376.816ZM524.834 381.864L525.594 380.57V380.57L524.834 381.864ZM555.15 403.255L556.058 402.062V402.062L555.15 403.255ZM612.12 448.695L611.161 449.848L612.838 451.244L613.54 449.177L612.12 448.695ZM617.177 433.762L618.598 434.242V434.242L617.177 433.762ZM629.159 396.792L630.584 397.262L629.159 396.792ZM641.473 364.825L640.131 364.155V364.155L641.473 364.825ZM649.79 351.935L648.667 350.941V350.941L649.79 351.935ZM666.986 342.395L666.823 340.904L666.823 340.904L666.986 342.395ZM687.476 350.026L688.522 348.951V348.951L687.476 350.026ZM697.884 365.352L696.536 366.011V366.011L697.884 365.352ZM700.806 371.866L699.421 372.441L699.74 373.211L700.563 373.346L700.806 371.866ZM721.836 375.105L721.618 376.589V376.589L721.836 375.105ZM788.478 384.692L788.257 386.176L790.38 386.491L789.947 384.389L788.478 384.692ZM778.261 339.097L776.806 339.461V339.461L778.261 339.097ZM790.994 317.875L790.63 316.42L790.63 316.42L790.994 317.875ZM812.216 330.609L810.761 330.973V330.973L812.216 330.609ZM825.365 390.417L823.895 390.715L824.1 391.73L825.123 391.898L825.365 390.417ZM864.185 397.334L864.48 395.864L864.476 395.863L864.185 397.334ZM868.484 398.198L868.784 396.728L868.779 396.727L868.484 398.198ZM869.019 398.307L869.407 396.858L869.363 396.847L869.319 396.837L869.019 398.307ZM869.547 398.449L869.938 397.001L869.935 397L869.547 398.449ZM948.418 422.461L948.95 421.059V421.059L948.418 422.461ZM971.097 432.95L971.879 431.67V431.67L971.097 432.95ZM979.732 439.563L980.794 438.504V438.504L979.732 439.563ZM986.539 450.669L987.983 450.264L987.981 450.256L987.979 450.248L986.539 450.669ZM986.675 451.153L988.13 450.787L988.125 450.767L988.119 450.747L986.675 451.153ZM986.86 451.891L988.321 451.549L988.318 451.537L988.315 451.526L986.86 451.891ZM986.376 463.821L987.802 464.286V464.286L986.376 463.821ZM980.109 473.58L981.142 474.668V474.668L980.109 473.58ZM965.002 481.886L965.471 483.311V483.311L965.002 481.886ZM910.471 488.59L910.493 490.09V490.09L910.471 488.59ZM850.101 488.536L850.115 487.036L849.524 489.92L850.101 488.536ZM996.5 549.76L995.938 551.151V551.151L996.5 549.76ZM1054.46 570.005L1054.79 568.541V568.541L1054.46 570.005ZM1067.75 590.884L1069.22 591.21L1069.22 591.21L1067.75 590.884ZM1046.87 604.171L1046.55 605.636H1046.55L1046.87 604.171ZM983.378 582.208L982.816 583.598V583.598L983.378 582.208ZM851.583 527.092L852.163 525.709L849.615 524.64L850.107 527.359L851.583 527.092ZM861.445 586.897L862.934 586.716V586.716L861.445 586.897ZM862.185 596.675L860.685 596.664V596.664L862.185 596.675ZM861.109 603.717L862.531 604.194V604.194L861.109 603.717ZM853.954 613.074L854.78 614.326V614.326L853.954 613.074ZM835.848 613.912L835.144 615.236H835.144L835.848 613.912ZM830.049 609.063L828.876 609.998L828.876 609.998L830.049 609.063ZM828.17 606.284L829.47 605.536V605.536L828.17 606.284ZM826.276 602.414L824.896 603.003H824.896L826.276 602.414ZM823.223 594.223L821.803 594.707V594.707L823.223 594.223ZM807.164 540.869L805.723 541.286V541.286L807.164 540.869ZM814.903 521.033L815.68 522.316L816.566 521.78L816.379 520.762L814.903 521.033ZM813.069 511.116L814.544 510.842L814.395 510.036L813.636 509.727L813.069 511.116ZM781.378 498.359L781.941 496.969V496.969L781.378 498.359ZM771.577 494.118L770.907 495.46V495.46L771.577 494.118ZM766.96 491.339L766.062 492.541L766.062 492.541L766.96 491.339ZM759.998 481.751L758.569 482.207V482.207L759.998 481.751ZM762.802 464.575L761.592 463.688V463.688L762.802 464.575ZM771.521 457.71L770.909 456.341V456.341L771.521 457.71ZM784.101 454.621L783.917 453.132H783.917L784.101 454.621ZM802.131 453.49L802.17 454.989L803.94 454.943L803.604 453.205L802.131 453.49ZM795.816 421.189L797.287 420.898L797.083 419.865L796.042 419.706L795.816 421.189ZM716.758 409.735L716.54 411.219V411.219L716.758 409.735ZM713.006 409.178L713.226 407.695L710.949 407.356L711.56 409.576L713.006 409.178ZM714.147 413.367L712.698 413.756V413.756L714.147 413.367ZM729.864 480.148L728.397 480.46V480.46L729.864 480.148ZM756.308 615.996L754.833 616.272V616.272L756.308 615.996ZM763.23 652.179L761.758 652.468L761.778 652.571L761.812 652.67L763.23 652.179ZM771.711 688.559L770.215 688.668V688.669L771.711 688.559ZM771.716 693.462L773.208 693.613V693.613L771.716 693.462ZM770.934 697.248L769.505 696.791V696.791L770.934 697.248ZM768.894 701.543L770.15 702.363V702.363L768.894 701.543ZM760.908 708.176L761.483 709.562V709.562L760.908 708.176ZM741.442 704.041L740.355 705.075V705.075L741.442 704.041ZM738.399 699.72L737.061 700.399V700.399L738.399 699.72ZM736.359 694.055L734.912 694.447V694.447L736.359 694.055ZM734.881 687.991L736.344 687.658V687.658L734.881 687.991ZM729.372 661.41L730.844 661.12L730.822 661.01L730.784 660.904L729.372 661.41ZM722.904 645.001L724.284 644.413V644.413L722.904 645.001ZM687.875 577.849L689.16 577.076V577.076L687.875 577.849ZM682.989 570.045L684.246 569.226L684.085 568.979L683.842 568.811L682.989 570.045ZM681.085 568.73L681.936 567.494V567.494L681.085 568.73ZM621.663 527.963L622.522 526.733L620.909 525.608L620.25 527.461L621.663 527.963ZM593.776 601.3L595.118 601.971L595.118 601.971L593.776 601.3ZM570.298 609.126L569.627 610.468V610.468L570.298 609.126ZM562.472 585.648L563.813 586.319V586.319L562.472 585.648ZM592.008 506.844L593.422 507.343L593.794 506.291L592.893 505.633L592.008 506.844ZM579.385 497.473L578.48 498.669L578.48 498.67L579.385 497.473ZM579.071 497.236L578.114 498.391L578.14 498.412L578.166 498.432L579.071 497.236ZM578.769 496.985L579.726 495.83L579.726 495.83L578.769 496.985ZM513.332 440.129L512.276 441.194V441.194L513.332 440.129ZM493.903 416.986L492.621 417.764V417.764L493.903 416.986ZM493.557 416.408L494.848 415.645L493.985 414.184L492.641 415.22L493.557 416.408ZM480.162 419.945L479.982 421.434L479.982 421.434L480.162 419.945ZM470.125 415.6L471.073 414.437V414.437L470.125 415.6ZM465.968 411.224L464.771 412.128V412.128L465.968 411.224ZM461.281 403.442L462.619 402.763V402.763L461.281 403.442ZM452.023 382.262L453.413 381.699V381.699L452.023 382.262ZM415.368 286.42L416.774 285.898L415.882 283.496L414.224 285.45L415.368 286.42ZM246.345 450.347L247.346 451.464V451.464L246.345 450.347ZM170.881 502.896L171.533 504.247V504.247L170.881 502.896ZM117.021 522.462L116.6 521.023L111.663 522.464L116.601 523.903L117.021 522.462ZM182.984 540.614L183.37 539.164V539.164L182.984 540.614ZM603.352 649.972L603.734 648.522V648.522L603.352 649.972ZM700.853 677.511L701.369 676.103V676.103L700.853 677.511ZM710.495 681.803L711.252 680.508V680.508L710.495 681.803ZM716.079 686.209L717.185 685.196L717.185 685.196L716.079 686.209ZM720.897 701.466L722.381 701.681V701.681L720.897 701.466ZM712.656 714.312L713.486 715.562V715.562L712.656 714.312ZM706.831 717.049L706.375 715.621H706.374L706.831 717.049ZM699.166 718.738L699.403 720.219H699.403L699.166 718.738ZM659.142 723.125L658.988 721.633V721.633L659.142 723.125ZM604.628 730.362L604.888 731.839V731.839L604.628 730.362ZM492.152 765.153L491.544 763.782V763.782L492.152 765.153ZM344.076 852.674L343.234 851.433V851.433L344.076 852.674ZM111.788 1014.76L112.636 1016V1016L111.788 1014.76ZM49.5157 1055.32L50.2746 1056.61L49.5157 1055.32ZM23.8878 1067.48L23.5132 1066.03H23.5132L23.8878 1067.48ZM15.7999 1069.56L14.9062 1070.77L15.4812 1071.2L16.1745 1071.02L15.7999 1069.56ZM9.09191 1064.59L9.98564 1063.38H9.98556L9.09191 1064.59ZM1.59386 1047.27L0.101478 1047.12L0.101472 1047.12L1.59386 1047.27ZM4.05675 1038.96L2.70377 1038.31L2.70377 1038.31L4.05675 1038.96ZM10.1388 1029.04L8.90656 1028.18H8.90656L10.1388 1029.04ZM22.4952 1010.89L23.7818 1011.66L23.8663 1011.52L23.9183 1011.37L22.4952 1010.89ZM23.5118 1007.84L22.0888 1007.37L22.0888 1007.37L23.5118 1007.84ZM25.1222 1003.01L26.5452 1003.49V1003.49L25.1222 1003.01ZM47.2579 991.944L47.7323 990.521H47.7322L47.2579 991.944ZM53.7345 995.815L52.7044 996.905L55.3855 999.438L55.2332 995.753L53.7345 995.815ZM52.9982 980.044L54.4962 979.968V979.968L52.9982 980.044ZM43.9728 818.001L42.4742 818.068V818.068L43.9728 818.001ZM43.3595 797.309L41.8595 797.31V797.31L43.3595 797.309ZM43.5362 791.339L42.0408 791.222H42.0408L43.5362 791.339ZM43.9698 788.074L42.499 787.779L42.499 787.78L43.9698 788.074ZM44.7306 785.298L43.3169 784.797L43.3169 784.797L44.7306 785.298ZM47.8722 779.755L46.7188 778.796L46.7188 778.796L47.8722 779.755ZM62.0792 773.392L62.1336 771.893H62.1336L62.0792 773.392ZM74.0118 778.642L75.0782 777.587L75.0781 777.587L74.0118 778.642ZM78.0353 784.789L76.6482 785.36L76.6483 785.36L78.0353 784.789ZM79.503 789.47L80.9591 789.11V789.11L79.503 789.47ZM81.2345 797.578L82.7054 797.283V797.283L81.2345 797.578ZM78.6974 810.621L77.4439 809.797L77.18 810.198L77.1985 810.678L78.6974 810.621ZM78.9396 816.458L77.441 816.524V816.524L78.9396 816.458ZM87.9532 978.265L89.4513 978.189V978.189L87.9532 978.265ZM88.4386 988.324L86.9402 988.393L87.0637 991.08L89.2847 989.562L88.4386 988.324ZM91.9982 985.89L91.15 984.653V984.653L91.9982 985.89ZM324.431 823.708L323.589 822.467V822.467L324.431 823.708ZM477.952 733.164L477.344 731.793V731.793L477.952 733.164ZM598.555 695.892L598.294 694.415V694.415L598.555 695.892ZM624.795 691.876L624.993 693.363L625.183 690.428L624.795 691.876ZM594.436 683.817L594.818 682.366V682.366L594.436 683.817ZM173.965 574.432L173.578 575.881V575.881L173.965 574.432ZM79.7218 547.392L79.2122 548.803H79.2122L79.7218 547.392ZM70.3487 543.543L69.6903 544.891V544.891L70.3487 543.543ZM61.9484 537.795L60.88 538.848H60.88L61.9484 537.795ZM56.6681 519.728L55.2074 519.387H55.2073L56.6681 519.728ZM62.5812 509.588L61.5416 508.507L61.5323 508.516L62.5812 509.588ZM62.9845 509.201L61.9543 508.11L61.945 508.119L62.9845 509.201ZM78.8702 499.031L78.2247 497.677H78.2247L78.8702 499.031ZM101.973 490.398L101.55 488.959V488.959L101.973 490.398ZM155.661 471.378L156.314 472.729V472.729L155.661 471.378ZM222.992 424.277L223.993 425.394V425.394L222.992 424.277ZM391.23 260.75L392.382 261.71V261.71L391.23 260.75ZM401.314 248.346L402.488 249.279L403.012 248.62L402.722 247.83L401.314 248.346ZM399.765 244.125L398.356 244.641V244.641L399.765 244.125ZM379.529 187.13L378.106 187.605V187.605L379.529 187.13ZM390.597 164.995L390.122 163.572L390.122 163.572L390.597 164.995ZM412.734 176.062L414.157 175.588V175.588L412.734 176.062ZM426.333 214.803L424.923 215.315L425.906 218.027L427.562 215.664L426.333 214.803ZM458.366 164.951L457.075 164.187V164.187L458.366 164.951ZM474.166 137.71L472.881 136.936V136.936L474.166 137.71ZM476.883 133.421L475.643 132.577V132.577L476.883 133.421ZM480.736 128.719L479.696 127.639L479.696 127.639L480.736 128.719ZM1493.23 8.84521L1492.04 7.93984L1492.03 7.94785L1492.02 7.95595L1493.23 8.84521ZM1512.3 2.19482L1512.7 0.74844V0.748429L1512.3 2.19482ZM1521.33 8.04053L1522.48 7.08282V7.08281L1521.33 8.04053ZM1524 12.3423L1525.37 11.7249V11.7249L1524 12.3423ZM1526.13 20.5767L1527.62 20.3758V20.3758L1526.13 20.5767ZM1526.96 30.1011L1525.46 30.1866L1525.54 31.5726L1526.93 31.6008L1526.96 30.1011ZM1543.23 30.5308L1543.28 29.0314V29.0314L1543.23 30.5308ZM1615.42 34.2993L1615.56 32.8056V32.8056L1615.42 34.2993ZM1675.87 46.9458L1676.37 45.5303V45.5303L1675.87 46.9458ZM1686.6 69.2515L1688.01 69.7479V69.7478L1686.6 69.2515ZM1664.29 79.9741L1663.79 81.3896L1663.79 81.3896L1664.29 79.9741ZM1612.22 69.1528L1612.36 67.6591V67.6591L1612.22 69.1528ZM1542.17 65.5142L1542.22 64.0148V64.0148L1542.17 65.5142ZM1527.31 65.1147L1527.35 63.6151L1525.87 63.5831L1525.81 65.063L1527.31 65.1147ZM1513.16 215.733L1514.65 215.91V215.91L1513.16 215.733ZM1454.14 655.678L1455.62 655.899V655.899L1454.14 655.678ZM1437.45 752.254L1438.91 752.616V752.616L1437.45 752.254ZM1434.58 762.064L1435.99 762.573V762.573L1434.58 762.064ZM1430.2 770.631L1431.4 771.529V771.529L1430.2 770.631ZM1414.39 778.755L1414.38 780.255H1414.38L1414.39 778.755ZM1401.57 773.778L1402.55 772.64V772.64L1401.57 773.778ZM1375.61 733.544L1374.24 734.148V734.148L1375.61 733.544ZM1345.25 638.625L1343.8 638.991V638.991L1345.25 638.625ZM1293.13 413.584L1294.6 413.259V413.259L1293.13 413.584ZM1276.16 335.091L1274.69 335.385V335.385L1276.16 335.091ZM1289.89 314.5L1289.6 313.029H1289.6L1289.89 314.5ZM1310.48 328.228L1311.96 327.934V327.934L1310.48 328.228ZM1327.3 405.994L1325.83 406.319V406.319L1327.3 405.994ZM1379.2 630.091L1380.65 629.726V629.726L1379.2 630.091ZM1407.65 719.453L1406.28 720.057V720.057L1407.65 719.453ZM1408.23 720.759L1406.86 721.372L1408.84 725.791L1409.7 721.028L1408.23 720.759ZM1419.52 650.523L1421 650.744V650.744L1419.52 650.523ZM1478.41 211.602L1476.92 211.425V211.425L1478.41 211.602ZM1492.57 51.1206L1494.07 51.1188L1494.06 50.4375L1493.55 49.9898L1492.57 51.1206ZM1486.69 35.7466L1485.2 35.5605V35.5606L1486.69 35.7466ZM1488.38 23.1909L1486.9 22.9574V22.9574L1488.38 23.1909ZM1489.42 17.6343L1487.96 17.2924V17.2924L1489.42 17.6343ZM1490.3 14.5308L1491.72 15.0147V15.0147L1490.3 14.5308ZM1493.01 9.14502L1491.8 8.25576L1491.8 8.26502L1491.79 8.27439L1493.01 9.14502ZM1118.54 346.984L1118.2 345.523V345.523L1118.54 346.984ZM1138.19 349.516L1138.86 348.176L1138.85 348.17L1138.19 349.516ZM1138.75 349.797L1139.44 348.468L1139.43 348.463L1139.42 348.457L1138.75 349.797ZM1139.26 350.069L1139.97 348.746L1139.96 348.74L1139.26 350.069ZM1153.16 361.316L1154.26 360.292V360.292L1153.16 361.316ZM1165.51 376.898L1166.74 376.039V376.039L1165.51 376.898ZM1190.12 417.991L1191.44 417.28V417.28L1190.12 417.991ZM1235.23 509.403L1233.87 510.05V510.05L1235.23 509.403ZM1269.34 574.6L1268.06 575.378V575.378L1269.34 574.6ZM1279.23 589.21L1278.09 590.174L1278.14 590.239L1278.2 590.297L1279.23 589.21ZM1279.84 589.789L1278.8 590.867V590.867L1279.84 589.789ZM1281.29 591.26L1280.18 592.273L1280.19 592.277L1281.29 591.26ZM1282.59 592.853L1283.81 591.971V591.971L1282.59 592.853ZM1283.63 594.451L1282.33 595.196V595.196L1283.63 594.451ZM1285.73 600.449L1287.23 600.308L1287.22 600.262L1287.22 600.217L1285.73 600.449ZM1283.97 611.218L1285.21 612.068L1285.3 611.931L1285.37 611.777L1283.97 611.218ZM1271.71 620.346L1271.89 621.835L1272.02 621.82L1272.14 621.783L1271.71 620.346ZM1264.38 620.176L1264 621.626L1264.05 621.639L1264.09 621.648L1264.38 620.176ZM1261.49 619.214L1260.89 620.591L1260.91 620.596L1260.92 620.601L1261.49 619.214ZM1258.35 617.456L1259.22 616.231L1259.22 616.229L1258.35 617.456ZM1257.55 616.854L1256.62 618.031L1256.62 618.031L1257.55 616.854ZM1256.89 616.312L1257.87 615.174V615.174L1256.89 616.312ZM1254.28 613.782L1255.37 612.756L1255.34 612.72L1255.3 612.687L1254.28 613.782ZM1252.02 611.701L1253.03 610.593V610.593L1252.02 611.701ZM1235.08 596.905L1236.05 595.759V595.759L1235.08 596.905ZM1161.74 539.905L1162.62 538.691V538.691L1161.74 539.905ZM1111.02 508.39L1111.75 507.078L1109.64 505.91L1109.53 508.316L1111.02 508.39ZM1109.3 540.845L1110.79 540.937V540.937L1109.3 540.845ZM1107.78 559.38L1109.27 559.572V559.572L1107.78 559.38ZM1106.35 566.362L1104.92 565.891L1104.92 565.892L1106.35 566.362ZM1100.99 574.66L1101.99 575.781V575.781L1100.99 574.66ZM1087.61 579.083L1087.48 580.578V580.578L1087.61 579.083ZM1076.61 573.92L1075.55 574.981V574.981L1076.61 573.92ZM1073.18 554.024L1074.53 554.669L1074.64 554.443L1074.67 554.194L1073.18 554.024ZM1074.36 538.705L1075.86 538.796V538.796L1074.36 538.705ZM1076.87 490.245L1078.37 490.317L1078.41 489.352L1077.55 488.91L1076.87 490.245ZM1032.58 467.781L1031.89 469.113V469.113L1032.58 467.781ZM1003.51 452.86L1002.81 454.19V454.19L1003.51 452.86ZM997.192 449.228L996.333 450.457L996.333 450.457L997.192 449.228ZM991.715 443.562L990.443 444.358V444.358L991.715 443.562ZM989.005 435.171L987.508 435.267V435.267L989.005 435.171ZM990.538 426.696L989.169 426.083V426.083L990.538 426.696ZM1001.93 416.545L1001.44 415.127V415.127L1001.93 416.545ZM1009.42 415.174L1009.34 413.677V413.677L1009.42 415.174ZM1025.3 416.66L1025.59 415.188H1025.59L1025.3 416.66ZM1039.33 431.879L1037.83 432.046L1037.92 432.846L1038.64 433.214L1039.33 431.879ZM1048.67 436.697L1047.98 438.029V438.029L1048.67 436.697ZM1078.78 451.931L1078.11 453.27L1080.14 454.297L1080.28 452.024L1078.78 451.931ZM1088.36 386.156L1086.92 385.75V385.75L1088.36 386.156ZM1102.51 356.875L1101.39 355.875V355.875L1102.51 356.875ZM664.942 400.202L665.346 398.757L663.986 398.377L663.525 399.712L664.942 400.202ZM662.401 407.747L660.976 407.277V407.277L662.401 407.747ZM650.342 444.948L651.763 445.427V445.427L650.342 444.948ZM640.751 473.174L639.332 472.689L639.008 473.636L639.758 474.299L640.751 473.174ZM655.862 486.837L656.884 485.739V485.739L655.862 486.837ZM706.881 542.935L705.656 543.8L708.353 542.649L706.881 542.935ZM695.633 487.44L697.1 487.127V487.127L695.633 487.44ZM680.345 422.446L681.794 422.057V422.057L680.345 422.446ZM674.622 402.615L676.053 402.166L675.793 401.336L674.943 401.149L674.622 402.615ZM1126.32 383.9L1127.38 382.835L1125.9 381.366L1124.97 383.237L1126.32 383.9ZM1122.06 395.618L1120.62 395.212V395.212L1122.06 395.618ZM1113.34 460.837L1111.84 460.764V460.764L1113.34 460.837ZM1112.91 469.589L1111.42 469.516L1111.37 470.465L1112.21 470.913L1112.91 469.589ZM1182.29 511.572L1183.17 510.358V510.358L1182.29 511.572ZM1205.79 528.949L1204.89 530.146L1207.14 528.297L1205.79 528.949ZM1203.66 524.513L1202.3 525.161V525.161L1203.66 524.513ZM1159.3 434.586L1160.62 433.875V433.875L1159.3 434.586ZM1136.81 396.932L1138.04 396.074V396.074L1136.81 396.932ZM1127.59 385.208L1128.68 384.184V384.184L1127.59 385.208ZM832.655 427.127L832.91 425.649L830.765 425.28L831.183 427.416L832.655 427.127ZM837.762 453.412L836.289 453.695L836.521 454.9L837.748 454.912L837.762 453.412ZM909.957 453.594L909.979 455.094V455.094L909.957 453.594ZM929.449 452.792L929.561 454.287L929.948 451.377L929.449 452.792ZM860.974 432.388L861.365 430.94L861.319 430.928L861.272 430.918L860.974 432.388ZM1389.11 365.246V363.746V363.746V365.246ZM1406.61 382.746H1408.11V382.746L1406.61 382.746ZM1389.11 400.246V401.746V401.746V400.246ZM1382.72 400.246V401.746V401.746V400.246ZM1365.22 382.746L1363.72 382.746V382.746H1365.22ZM1382.72 365.246V363.746V363.746V365.246ZM470.828 211.364L472.327 211.418L472.522 205.981L469.569 210.549L470.828 211.364ZM440.839 254.419L439.639 253.519L439.149 254.173L439.432 254.939L440.839 254.419ZM469.62 331.192L468.219 331.728L471.12 331.198L469.62 331.192ZM469.701 300.826L468.201 300.822V300.822L469.701 300.826ZM470.691 215.425L469.191 215.378V215.378L470.691 215.425ZM487.088 124.626L487.629 126.026C491.579 124.499 498.451 123.857 504.268 128.923L505.253 127.792L506.238 126.66C499.323 120.638 491.169 121.442 486.547 123.227L487.088 124.626ZM505.253 127.792L504.268 128.923C508.509 132.616 509.447 137.218 509.679 138.42L511.151 138.135L512.624 137.851C512.356 136.464 511.255 131.029 506.238 126.66L505.253 127.792ZM511.151 138.135L509.679 138.42C510.024 140.209 510.038 141.763 510.022 142.65L511.522 142.677L513.021 142.705C513.039 141.719 513.026 139.931 512.624 137.851L511.151 138.135ZM511.522 142.677L510.022 142.65C509.984 144.719 509.48 148.161 509.165 150.531L510.652 150.728L512.139 150.925C512.436 148.687 512.979 144.995 513.021 142.705L511.522 142.677ZM510.652 150.728L509.165 150.531C508.746 153.696 508.184 158.038 507.576 163.762L509.067 163.92L510.559 164.079C511.163 158.391 511.721 154.077 512.139 150.925L510.652 150.728ZM509.067 163.92L507.576 163.762C506.36 175.208 504.942 192.351 504.173 216.493L505.672 216.541L507.171 216.588C507.938 192.521 509.351 175.452 510.559 164.079L509.067 163.92ZM505.672 216.541L504.173 216.493C503.399 240.753 503.271 271.484 503.201 300.905L504.701 300.909L506.201 300.912C506.271 271.482 506.399 240.796 507.171 216.588L505.672 216.541ZM504.701 300.909L503.201 300.905C503.132 330.03 503.12 358.018 502.566 376.467L504.066 376.512L505.565 376.557C506.12 358.055 506.132 330.011 506.201 300.912L504.701 300.909ZM504.066 376.512L504.356 377.984C508.026 377.261 511.19 377.812 513.066 378.273L513.424 376.816L513.782 375.359C511.69 374.845 508.045 374.199 503.776 375.04L504.066 376.512ZM513.424 376.816L513.066 378.273C516.996 379.238 520.854 381.266 524.075 383.157L524.834 381.864L525.594 380.57C522.323 378.65 518.154 376.434 513.782 375.359L513.424 376.816ZM524.834 381.864L524.075 383.157C530.952 387.196 540.753 394.184 554.241 404.449L555.15 403.255L556.058 402.062C542.571 391.797 532.642 384.709 525.594 380.57L524.834 381.864ZM555.15 403.255L554.241 404.449C569.732 416.239 590.581 432.724 611.161 449.848L612.12 448.695L613.08 447.542C592.466 430.39 571.583 413.878 556.058 402.062L555.15 403.255ZM612.12 448.695L613.54 449.177C615.187 444.334 616.873 439.355 618.598 434.242L617.177 433.762L615.756 433.283C614.032 438.394 612.346 443.37 610.7 448.212L612.12 448.695ZM617.177 433.762L618.598 434.242C622.893 421.507 626.528 409.57 630.584 397.262L629.159 396.792L627.735 396.323C623.636 408.762 620.062 420.515 615.756 433.283L617.177 433.762ZM629.159 396.792L630.584 397.262C634.413 385.641 638.448 374.243 642.815 365.495L641.473 364.825L640.131 364.155C635.656 373.119 631.563 384.704 627.735 396.323L629.159 396.792ZM641.473 364.825L642.815 365.495C644.986 361.145 647.629 356.639 650.913 352.929L649.79 351.935L648.667 350.941C645.133 354.932 642.354 359.701 640.131 364.155L641.473 364.825ZM649.79 351.935L650.913 352.929C654.051 349.386 659.405 344.736 667.15 343.886L666.986 342.395L666.823 340.904C658.006 341.872 652.022 347.152 648.667 350.941L649.79 351.935ZM666.986 342.395L667.15 343.886C675.54 342.965 682.141 346.929 686.43 351.101L687.476 350.026L688.522 348.951C683.854 344.411 676.413 339.851 666.823 340.904L666.986 342.395ZM687.476 350.026L686.43 351.101C690.542 355.101 693.794 360.403 696.536 366.011L697.884 365.352L699.231 364.693C696.423 358.951 692.991 353.298 688.522 348.951L687.476 350.026ZM697.884 365.352L696.536 366.011C697.499 367.98 698.46 370.129 699.421 372.441L700.806 371.866L702.191 371.29C701.212 368.933 700.226 366.727 699.231 364.693L697.884 365.352ZM700.806 371.866L700.563 373.346C706.204 374.27 713.095 375.339 721.618 376.589L721.836 375.105L722.054 373.621C713.543 372.373 706.669 371.306 701.048 370.385L700.806 371.866ZM721.836 375.105L721.618 376.589C739.04 379.144 762.973 382.423 788.257 386.176L788.478 384.692L788.698 383.208C763.456 379.462 739.39 376.163 722.054 373.621L721.836 375.105ZM788.478 384.692L789.947 384.389C784.382 357.379 782.042 348.036 779.716 338.733L778.261 339.097L776.806 339.461C779.122 348.726 781.453 358.028 787.008 384.995L788.478 384.692ZM778.261 339.097L779.716 338.733C777.573 330.161 782.785 321.474 791.358 319.331L790.994 317.875L790.63 316.42C780.45 318.965 774.261 329.281 776.806 339.461L778.261 339.097ZM790.994 317.875L791.358 319.331C799.931 317.188 808.618 322.4 810.761 330.973L812.216 330.609L813.671 330.245C811.126 320.065 800.81 313.875 790.63 316.42L790.994 317.875ZM812.216 330.609L810.761 330.973C813.564 342.185 816.345 353.35 823.895 390.715L825.365 390.417L826.836 390.12C819.277 352.716 816.486 341.506 813.671 330.245L812.216 330.609ZM825.365 390.417L825.123 391.898C838.717 394.122 851.92 396.439 863.894 398.806L864.185 397.334L864.476 395.863C852.458 393.487 839.221 391.165 825.608 388.937L825.365 390.417ZM864.185 397.334L863.889 398.805L868.188 399.668L868.484 398.198L868.779 396.727L864.48 395.864L864.185 397.334ZM868.484 398.198L868.183 399.667L868.718 399.777L869.019 398.307L869.319 396.837L868.784 396.728L868.484 398.198ZM869.019 398.307L868.63 399.756L869.159 399.898L869.547 398.449L869.935 397L869.407 396.858L869.019 398.307ZM869.547 398.449L869.156 399.897C903.627 409.2 929.827 417.017 947.886 423.864L948.418 422.461L948.95 421.059C930.741 414.155 904.417 406.306 869.938 397.001L869.547 398.449ZM948.418 422.461L947.886 423.864C956.856 427.264 964.493 430.674 970.315 434.23L971.097 432.95L971.879 431.67C965.822 427.97 957.983 424.484 948.95 421.059L948.418 422.461ZM971.097 432.95L970.315 434.23C973.236 436.014 976.166 438.113 978.67 440.622L979.732 439.563L980.794 438.504C978.064 435.767 974.919 433.527 971.879 431.67L971.097 432.95ZM979.732 439.563L978.67 440.622C981.041 443 983.744 446.459 985.1 451.091L986.539 450.669L987.979 450.248C986.433 444.969 983.374 441.09 980.794 438.504L979.732 439.563ZM986.539 450.669L985.095 451.075L985.231 451.558L986.675 451.153L988.119 450.747L987.983 450.264L986.539 450.669ZM986.675 451.153L985.22 451.518L985.406 452.257L986.86 451.891L988.315 451.526L988.13 450.787L986.675 451.153ZM986.86 451.891L985.4 452.233C986.213 455.706 986.196 459.533 984.95 463.356L986.376 463.821L987.802 464.286C989.232 459.897 989.248 455.51 988.321 451.549L986.86 451.891ZM986.376 463.821L984.95 463.356C983.663 467.304 981.374 470.312 979.077 472.491L980.109 473.58L981.142 474.668C983.711 472.23 986.326 468.814 987.802 464.286L986.376 463.821ZM980.109 473.58L979.077 472.491C974.821 476.529 969.311 478.888 964.533 480.462L965.002 481.886L965.471 483.311C970.39 481.691 976.404 479.163 981.142 474.668L980.109 473.58ZM965.002 481.886L964.533 480.462C954.361 483.812 939.978 486.657 910.449 487.09L910.471 488.59L910.493 490.09C940.198 489.654 954.91 486.79 965.471 483.311L965.002 481.886ZM910.471 488.59L910.449 487.09C889.515 487.398 868.614 487.218 850.115 487.036L850.101 488.536L850.086 490.036C868.583 490.218 889.518 490.398 910.493 490.09L910.471 488.59ZM850.101 488.536L849.524 489.92C893.708 508.332 957.793 535.724 995.938 551.151L996.5 549.76L997.062 548.37C958.933 532.949 894.913 505.584 850.678 487.151L850.101 488.536ZM996.5 549.76L995.938 551.151C1037.27 567.868 1045.85 569.628 1054.14 571.47L1054.46 570.005L1054.79 568.541C1046.73 566.749 1038.32 565.054 997.062 548.37L996.5 549.76ZM1054.46 570.005L1054.14 571.47C1062.76 573.387 1068.2 581.933 1066.29 590.559L1067.75 590.884L1069.22 591.21C1071.49 580.967 1065.03 570.818 1054.79 568.541L1054.46 570.005ZM1067.75 590.884L1066.29 590.559C1064.37 599.185 1055.82 604.624 1047.2 602.707L1046.87 604.171L1046.55 605.636C1056.79 607.912 1066.94 601.453 1069.22 591.21L1067.75 590.884ZM1046.87 604.171L1047.2 602.707C1036.52 600.334 1026.13 597.88 983.94 580.817L983.378 582.208L982.816 583.598C1025.09 600.694 1035.64 603.213 1046.55 605.636L1046.87 604.171ZM983.378 582.208L983.94 580.817C950.119 567.139 894.706 543.552 852.163 525.709L851.583 527.092L851.003 528.476C893.515 546.306 948.971 569.91 982.816 583.598L983.378 582.208ZM851.583 527.092L850.107 527.359C854.787 553.241 858.544 575.441 859.956 587.078L861.445 586.897L862.934 586.716C861.51 574.978 857.736 552.691 853.059 526.825L851.583 527.092ZM861.445 586.897L859.956 587.078C860.395 590.693 860.705 594.031 860.685 596.664L862.185 596.675L863.685 596.687C863.706 593.849 863.375 590.348 862.934 586.716L861.445 586.897ZM862.185 596.675L860.685 596.664C860.678 597.554 860.666 600.318 859.686 603.24L861.109 603.717L862.531 604.194C863.672 600.791 863.677 597.617 863.685 596.687L862.185 596.675ZM861.109 603.717L859.686 603.24C859.285 604.436 857.753 608.773 853.129 611.821L853.954 613.074L854.78 614.326C860.256 610.716 862.064 605.586 862.531 604.194L861.109 603.717ZM853.954 613.074L853.129 611.821C846.886 615.937 840.31 614.584 836.552 612.587L835.848 613.912L835.144 615.236C839.552 617.578 847.354 619.221 854.78 614.326L853.954 613.074ZM835.848 613.912L836.552 612.587C833.569 611.002 831.82 608.878 831.222 608.128L830.049 609.063L828.876 609.998C829.569 610.867 831.624 613.365 835.144 615.236L835.848 613.912ZM830.049 609.063L831.222 608.128C830.417 607.119 829.836 606.172 829.47 605.536L828.17 606.284L826.87 607.032C827.278 607.742 827.944 608.829 828.876 609.998L830.049 609.063ZM828.17 606.284L829.47 605.536C828.729 604.247 828.118 602.91 827.655 601.825L826.276 602.414L824.896 603.003C825.379 604.135 826.043 605.595 826.87 607.032L828.17 606.284ZM826.276 602.414L827.655 601.825C826.695 599.576 825.672 596.762 824.643 593.74L823.223 594.223L821.803 594.707C822.84 597.751 823.892 600.65 824.896 603.003L826.276 602.414ZM823.223 594.223L824.643 593.74C820.53 581.664 814.519 560.883 808.605 540.452L807.164 540.869L805.723 541.286C811.627 561.681 817.662 582.548 821.803 594.707L823.223 594.223ZM807.164 540.869L808.605 540.452C806.549 533.348 809.638 525.972 815.68 522.316L814.903 521.033L814.127 519.749C806.954 524.09 803.28 532.846 805.723 541.286L807.164 540.869ZM814.903 521.033L816.379 520.762C815.778 517.492 815.164 514.181 814.544 510.842L813.069 511.116L811.595 511.39C812.214 514.728 812.828 518.037 813.428 521.304L814.903 521.033ZM813.069 511.116L813.636 509.727C798.648 503.614 788.696 499.705 781.941 496.969L781.378 498.359L780.815 499.749C787.633 502.511 797.492 506.382 812.503 512.505L813.069 511.116ZM781.378 498.359L781.941 496.969C777.968 495.359 774.657 493.978 772.247 492.776L771.577 494.118L770.907 495.46C773.439 496.723 776.857 498.146 780.815 499.749L781.378 498.359ZM771.577 494.118L772.247 492.776C771.08 492.193 769.441 491.321 767.858 490.138L766.96 491.339L766.062 492.541C767.858 493.883 769.682 494.848 770.907 495.46L771.577 494.118ZM766.96 491.339L767.858 490.138C766.622 489.214 763.059 486.417 761.427 481.296L759.998 481.751L758.569 482.207C760.489 488.236 764.673 491.503 766.062 492.541L766.96 491.339ZM759.998 481.751L761.427 481.296C759.706 475.891 760.639 470.062 764.012 465.462L762.802 464.575L761.592 463.688C757.65 469.065 756.558 475.893 758.569 482.207L759.998 481.751ZM762.802 464.575L764.012 465.462C766.725 461.76 770.221 459.933 772.132 459.08L771.521 457.71L770.909 456.341C768.792 457.285 764.751 459.379 761.592 463.688L762.802 464.575ZM771.521 457.71L772.132 459.08C776.07 457.323 780.65 456.558 784.285 456.109L784.101 454.621L783.917 453.132C780.23 453.587 775.277 454.392 770.909 456.341L771.521 457.71ZM784.101 454.621L784.285 456.109C789.168 455.506 795.263 455.168 802.17 454.989L802.131 453.49L802.092 451.99C795.151 452.17 788.943 452.511 783.917 453.132L784.101 454.621ZM802.131 453.49L803.604 453.205C801.374 441.682 799.228 430.722 797.287 420.898L795.816 421.189L794.344 421.48C796.284 431.3 798.43 442.256 800.658 453.775L802.131 453.49ZM795.816 421.189L796.042 419.706C766.836 415.255 737.8 411.304 716.976 408.251L716.758 409.735L716.54 411.219C737.419 414.281 766.383 418.221 795.59 422.672L795.816 421.189ZM716.758 409.735L716.976 408.251C715.693 408.063 714.446 407.876 713.226 407.695L713.006 409.178L712.785 410.662C714 410.842 715.254 411.03 716.54 411.219L716.758 409.735ZM713.006 409.178L711.56 409.576C711.94 410.958 712.321 412.352 712.698 413.756L714.147 413.367L715.595 412.978C715.216 411.565 714.834 410.166 714.452 408.78L713.006 409.178ZM714.147 413.367L712.698 413.756C717.981 433.424 723.296 456.517 728.397 480.46L729.864 480.148L731.331 479.835C726.226 455.868 720.897 432.718 715.595 412.978L714.147 413.367ZM729.864 480.148L728.397 480.46C738.596 528.335 748.088 580.339 754.833 616.272L756.308 615.996L757.782 615.719C751.04 579.808 741.54 527.756 731.331 479.835L729.864 480.148ZM756.308 615.996L754.833 616.272C757.602 631.02 759.886 642.924 761.758 652.468L763.23 652.179L764.702 651.891C762.831 642.356 760.55 630.461 757.782 615.719L756.308 615.996ZM763.23 652.179L761.812 652.67C766.435 666.012 769.455 678.279 770.215 688.668L771.711 688.559L773.207 688.45C772.421 677.696 769.313 665.153 764.647 651.688L763.23 652.179ZM771.711 688.559L770.215 688.669C770.266 689.363 770.421 691.36 770.224 693.312L771.716 693.462L773.208 693.613C773.435 691.37 773.257 689.13 773.207 688.45L771.711 688.559ZM771.716 693.462L770.224 693.311C770.171 693.829 770.02 695.179 769.505 696.791L770.934 697.248L772.362 697.704C772.97 695.804 773.147 694.217 773.208 693.613L771.716 693.462ZM770.934 697.248L769.505 696.791C769.247 697.597 768.709 699.082 767.637 700.724L768.894 701.543L770.15 702.363C771.42 700.416 772.058 698.658 772.362 697.704L770.934 697.248ZM768.894 701.543L767.637 700.724C766.603 702.31 764.361 705.12 760.334 706.791L760.908 708.176L761.483 709.562C766.266 707.578 768.925 704.24 770.15 702.363L768.894 701.543ZM760.908 708.176L760.334 706.791C750.453 710.889 743.477 704.004 742.528 703.006L741.442 704.041L740.355 705.075C741.4 706.172 749.697 714.45 761.483 709.562L760.908 708.176ZM741.442 704.041L742.528 703.006C740.861 701.255 739.981 699.524 739.736 699.041L738.399 699.72L737.061 700.399C737.349 700.966 738.386 703.006 740.355 705.075L741.442 704.041ZM738.399 699.72L739.736 699.041C738.694 696.988 738.068 694.625 737.807 693.663L736.359 694.055L734.912 694.447C735.164 695.378 735.859 698.031 737.061 700.399L738.399 699.72ZM736.359 694.055L737.807 693.663C737.388 692.116 736.904 690.122 736.344 687.658L734.881 687.991L733.418 688.323C733.983 690.805 734.477 692.843 734.912 694.447L736.359 694.055ZM734.881 687.991L736.344 687.658C735.105 682.213 733.333 673.745 730.844 661.12L729.372 661.41L727.901 661.7C730.392 674.334 732.17 682.836 733.418 688.323L734.881 687.991ZM729.372 661.41L730.784 660.904C728.958 655.802 726.795 650.295 724.284 644.413L722.904 645.001L721.525 645.59C724.015 651.424 726.156 656.875 727.96 661.915L729.372 661.41ZM722.904 645.001L724.284 644.413C715.741 624.399 703.733 601.291 689.16 577.076L687.875 577.849L686.59 578.623C701.109 602.748 713.048 625.731 721.525 645.59L722.904 645.001ZM687.875 577.849L689.16 577.076C687.55 574.4 685.919 571.793 684.246 569.226L682.989 570.045L681.733 570.865C683.385 573.399 684.997 575.977 686.59 578.623L687.875 577.849ZM682.989 570.045L683.842 568.811C683.226 568.386 682.587 567.943 681.936 567.494L681.085 568.73L680.235 569.966C680.885 570.413 681.514 570.849 682.137 571.28L682.989 570.045ZM681.085 568.73L681.936 567.494C667.34 557.449 645.113 542.501 622.522 526.733L621.663 527.963L620.805 529.193C643.399 544.963 665.685 559.951 680.235 569.966L681.085 568.73ZM621.663 527.963L620.25 527.461C605.019 570.283 595.588 594.322 592.435 600.63L593.776 601.3L595.118 601.971C598.372 595.463 607.869 571.223 623.076 528.466L621.663 527.963ZM593.776 601.3L592.435 600.629C588.483 608.533 578.872 611.737 570.969 607.785L570.298 609.126L569.627 610.468C579.013 615.161 590.425 611.357 595.118 601.971L593.776 601.3ZM570.298 609.126L570.969 607.785C563.065 603.833 559.862 594.222 563.813 586.319L562.472 585.648L561.13 584.977C556.437 594.363 560.242 605.775 569.627 610.468L570.298 609.126ZM562.472 585.648L563.813 586.319C566.362 581.222 576.37 555.673 593.422 507.343L592.008 506.844L590.593 506.345C573.514 554.751 563.575 580.088 561.13 584.977L562.472 585.648ZM592.008 506.844L592.893 505.633C588.55 502.459 584.328 499.329 580.289 496.277L579.385 497.473L578.48 498.67C582.534 501.734 586.769 504.874 591.123 508.055L592.008 506.844ZM579.385 497.473L580.29 496.277L579.977 496.04L579.071 497.236L578.166 498.432L578.48 498.669L579.385 497.473ZM579.071 497.236L580.029 496.081L579.726 495.83L578.769 496.985L577.811 498.14L578.114 498.391L579.071 497.236ZM578.769 496.985L579.726 495.83C553.721 474.272 530.292 454.838 514.388 439.064L513.332 440.129L512.276 441.194C528.297 457.084 551.847 476.616 577.811 498.14L578.769 496.985ZM513.332 440.129L514.388 439.064C506.514 431.254 499.614 423.507 495.186 416.208L493.903 416.986L492.621 417.764C497.244 425.385 504.356 433.34 512.276 441.194L513.332 440.129ZM493.903 416.986L495.186 416.208C495.074 416.023 494.961 415.836 494.848 415.645L493.557 416.408L492.265 417.171C492.386 417.375 492.505 417.574 492.621 417.764L493.903 416.986ZM493.557 416.408L492.641 415.22C489.769 417.434 485.769 419.113 480.343 418.456L480.162 419.945L479.982 421.434C486.293 422.198 491.065 420.223 494.473 417.596L493.557 416.408ZM480.162 419.945L480.343 418.456C475.864 417.913 472.718 415.779 471.073 414.437L470.125 415.6L469.177 416.763C471.057 418.295 474.725 420.797 479.982 421.434L480.162 419.945ZM470.125 415.6L471.073 414.437C469.329 413.016 468.038 411.476 467.165 410.32L465.968 411.224L464.771 412.128C465.725 413.392 467.18 415.135 469.177 416.763L470.125 415.6ZM465.968 411.224L467.165 410.32C465.419 408.009 463.905 405.294 462.619 402.763L461.281 403.442L459.944 404.121C461.257 406.706 462.865 409.606 464.771 412.128L465.968 411.224ZM461.281 403.442L462.619 402.763C459.983 397.574 456.92 390.354 453.413 381.699L452.023 382.262L450.632 382.826C454.138 391.477 457.244 398.806 459.944 404.121L461.281 403.442ZM452.023 382.262L453.413 381.699C443.729 357.804 429.318 319.648 416.774 285.898L415.368 286.42L413.962 286.943C426.505 320.692 440.931 358.885 450.632 382.826L452.023 382.262ZM415.368 286.42L414.224 285.45C368.62 339.203 290.012 409.218 245.344 449.23L246.345 450.347L247.346 451.464C291.953 411.507 370.744 341.338 416.512 287.391L415.368 286.42ZM246.345 450.347L245.344 449.23C216.321 475.228 192.182 490.944 170.229 501.545L170.881 502.896L171.533 504.247C193.777 493.506 218.146 477.62 247.346 451.464L246.345 450.347ZM170.881 502.896L170.229 501.545C150.526 511.059 132.914 516.259 116.6 521.023L117.021 522.462L117.441 523.902C133.759 519.138 151.585 513.88 171.533 504.247L170.881 502.896ZM117.021 522.462L116.601 523.903C131.765 528.32 153.014 534.174 182.597 542.063L182.984 540.614L183.37 539.164C153.793 531.277 132.571 525.43 117.44 521.022L117.021 522.462ZM182.984 540.614L182.597 542.063C287.598 570.063 493.581 622.606 602.97 651.423L603.352 649.972L603.734 648.522C494.276 619.686 288.393 567.17 183.37 539.164L182.984 540.614ZM603.352 649.972L602.97 651.423C657.131 665.691 686.603 673.879 700.336 678.919L700.853 677.511L701.369 676.103C687.471 671.002 657.83 662.773 603.734 648.522L603.352 649.972ZM700.853 677.511L700.336 678.919C703.738 680.168 707.062 681.535 709.739 683.099L710.495 681.803L711.252 680.508C708.337 678.806 704.81 677.366 701.369 676.103L700.853 677.511ZM710.495 681.803L709.739 683.099C711.001 683.836 713.081 685.16 714.974 687.223L716.079 686.209L717.185 685.196C714.998 682.811 712.623 681.309 711.252 680.508L710.495 681.803ZM716.079 686.209L714.974 687.223C716.767 689.179 720.441 694.13 719.412 701.252L720.897 701.466L722.381 701.681C723.598 693.259 719.238 687.435 717.185 685.196L716.079 686.209ZM720.897 701.466L719.412 701.252C718.417 708.14 713.745 711.789 711.827 713.062L712.656 714.312L713.486 715.562C715.681 714.105 721.205 709.821 722.381 701.681L720.897 701.466ZM712.656 714.312L711.827 713.062C709.675 714.491 707.561 715.241 706.375 715.621L706.831 717.049L707.288 718.478C708.585 718.064 710.999 717.213 713.486 715.562L712.656 714.312ZM706.831 717.049L706.374 715.621C703.873 716.42 701.072 716.914 698.929 717.257L699.166 718.738L699.403 720.219C701.558 719.875 704.553 719.352 707.288 718.478L706.831 717.049ZM699.166 718.738L698.929 717.257C689.951 718.692 675.119 719.972 658.988 721.633L659.142 723.125L659.295 724.618C675.317 722.968 690.314 721.672 699.403 720.219L699.166 718.738ZM659.142 723.125L658.988 721.633C642.378 723.344 623.32 725.545 604.368 728.885L604.628 730.362L604.888 731.839C623.734 728.518 642.706 726.326 659.295 724.618L659.142 723.125ZM604.628 730.362L604.368 728.885C566.661 735.529 529.974 746.722 491.544 763.782L492.152 765.153L492.761 766.524C530.979 749.558 567.433 738.439 604.888 731.839L604.628 730.362ZM492.152 765.153L491.544 763.782C453.27 780.772 414.146 803.337 343.234 851.433L344.076 852.674L344.918 853.916C415.775 805.857 454.728 783.407 492.761 766.524L492.152 765.153ZM344.076 852.674L343.234 851.433C271.522 900.072 171.987 971.67 110.94 1013.52L111.788 1014.76L112.636 1016C173.88 974.009 273.109 902.62 344.918 853.916L344.076 852.674ZM111.788 1014.76L110.94 1013.52C80.8227 1034.17 61.5098 1046.54 48.7569 1054.02L49.5157 1055.32L50.2746 1056.61C63.1177 1049.08 82.4979 1036.66 112.636 1016L111.788 1014.76ZM49.5157 1055.32L48.7569 1054.02C36.2566 1061.35 29.0658 1064.59 23.5132 1066.03L23.8878 1067.48L24.2624 1068.93C30.2397 1067.39 37.7292 1063.97 50.2746 1056.61L49.5157 1055.32ZM23.8878 1067.48L23.5132 1066.03L15.4253 1068.11L15.7999 1069.56L16.1745 1071.02L24.2624 1068.93L23.8878 1067.48ZM15.7999 1069.56L16.6936 1068.36L9.98564 1063.38L9.09191 1064.59L8.19818 1065.79L14.9062 1070.77L15.7999 1069.56ZM9.09191 1064.59L9.98556 1063.38C3.34251 1058.45 2.70033 1051.24 3.08625 1047.42L1.59386 1047.27L0.101472 1047.12C-0.339374 1051.48 0.363572 1059.98 8.19826 1065.79L9.09191 1064.59ZM1.59386 1047.27L3.08624 1047.42C3.43525 1043.97 4.68038 1041.13 5.40973 1039.61L4.05675 1038.96L2.70377 1038.31C1.92382 1039.94 0.502705 1043.15 0.101478 1047.12L1.59386 1047.27ZM4.05675 1038.96L5.40973 1039.61C6.98748 1036.31 9.37447 1032.77 11.371 1029.89L10.1388 1029.04L8.90656 1028.18C6.91694 1031.05 4.39847 1034.77 2.70377 1038.31L4.05675 1038.96ZM10.1388 1029.04L11.371 1029.89C15.622 1023.77 20.0927 1017.82 23.7818 1011.66L22.4952 1010.89L21.2087 1010.12C17.5881 1016.16 13.2467 1021.93 8.90656 1028.18L10.1388 1029.04ZM22.4952 1010.89L23.9183 1011.37C24.2448 1010.39 24.6079 1009.3 24.9349 1008.32L23.5118 1007.84L22.0888 1007.37C21.7379 1008.42 21.4234 1009.36 21.0722 1010.42L22.4952 1010.89ZM23.5118 1007.84L24.9349 1008.32C25.4676 1006.72 26.0025 1005.11 26.5452 1003.49L25.1222 1003.01L23.6992 1002.54C23.1564 1004.17 22.6216 1005.77 22.0888 1007.37L23.5118 1007.84ZM25.1222 1003.01L26.5452 1003.49C29.3396 995.104 38.4006 990.573 46.7836 993.367L47.2579 991.944L47.7322 990.521C37.7774 987.203 27.0174 992.583 23.6992 1002.54L25.1222 1003.01ZM47.2579 991.944L46.7836 993.367C49.069 994.129 51.064 995.356 52.7044 996.905L53.7345 995.815L54.7646 994.725C52.8142 992.882 50.442 991.424 47.7323 990.521L47.2579 991.944ZM53.7345 995.815L55.2332 995.753C55.054 991.416 54.8139 986.209 54.4962 979.968L52.9982 980.044L51.5001 980.121C51.8174 986.354 52.057 991.551 52.2358 995.877L53.7345 995.815ZM52.9982 980.044L54.4962 979.968C52.4332 939.447 47.1273 855.449 45.4713 817.935L43.9728 818.001L42.4742 818.068C44.1294 855.563 49.4423 939.703 51.5001 980.121L52.9982 980.044ZM43.9728 818.001L45.4713 817.935C45.0539 808.479 44.8617 801.801 44.8595 797.308L43.3595 797.309L41.8595 797.31C41.8617 801.87 42.0563 808.6 42.4742 818.068L43.9728 818.001ZM43.3595 797.309L44.8595 797.308C44.8584 795.107 44.9019 793.113 45.0317 791.457L43.5362 791.339L42.0408 791.222C41.9018 792.996 41.8584 795.082 41.8595 797.31L43.3595 797.309ZM43.5362 791.339L45.0317 791.457C45.094 790.662 45.2038 789.552 45.4407 788.368L43.9698 788.074L42.499 787.78C42.2285 789.132 42.1072 790.375 42.0408 791.222L43.5362 791.339ZM43.9698 788.074L45.4407 788.368C45.5589 787.777 45.7689 786.858 46.1442 785.8L44.7306 785.298L43.3169 784.797C42.8778 786.035 42.6343 787.103 42.499 787.779L43.9698 788.074ZM44.7306 785.298L46.1442 785.8C46.4466 784.948 47.2452 782.856 49.0256 780.714L47.8722 779.755L46.7188 778.796C44.6132 781.329 43.6713 783.798 43.3169 784.797L44.7306 785.298ZM47.8722 779.755L49.0255 780.714C50.9618 778.386 55.3342 774.648 62.0248 774.891L62.0792 773.392L62.1336 771.893C54.1752 771.604 48.9926 776.062 46.7188 778.796L47.8722 779.755ZM62.0792 773.392L62.0248 774.891C67.9653 775.107 71.6569 778.395 72.9455 779.697L74.0118 778.642L75.0781 777.587C73.5648 776.057 69.188 772.149 62.1336 771.893L62.0792 773.392ZM74.0118 778.642L72.9455 779.697C75.4424 782.221 76.5139 785.033 76.6482 785.36L78.0353 784.789L79.4223 784.218C79.2712 783.85 78.0183 780.559 75.0782 777.587L74.0118 778.642ZM78.0353 784.789L76.6483 785.36C77.3411 787.042 77.7992 788.83 78.047 789.831L79.503 789.47L80.9591 789.11C80.7081 788.096 80.2063 786.121 79.4222 784.217L78.0353 784.789ZM79.503 789.47L78.047 789.831C78.6313 792.191 79.2495 795.301 79.7636 797.872L81.2345 797.578L82.7054 797.283C82.1962 794.738 81.5634 791.551 80.9591 789.11L79.503 789.47ZM81.2345 797.578L79.7636 797.872C80.6227 802.167 79.6751 806.402 77.4439 809.797L78.6974 810.621L79.9509 811.445C82.5974 807.418 83.7255 802.384 82.7054 797.283L81.2345 797.578ZM78.6974 810.621L77.1985 810.678C77.2675 812.468 77.3479 814.413 77.441 816.524L78.9396 816.458L80.4381 816.391C80.3452 814.286 80.265 812.346 80.1963 810.563L78.6974 810.621ZM78.9396 816.458L77.441 816.524C79.1056 854.233 84.3356 936.71 86.4552 978.341L87.9532 978.265L89.4513 978.189C87.3264 936.453 82.1035 854.12 80.4381 816.391L78.9396 816.458ZM87.9532 978.265L86.4552 978.341C86.6411 981.993 86.7997 985.335 86.9402 988.393L88.4386 988.324L89.937 988.255C89.7964 985.194 89.6376 981.847 89.4513 978.189L87.9532 978.265ZM88.4386 988.324L89.2847 989.562C90.4516 988.765 91.6406 987.954 92.8463 987.127L91.9982 985.89L91.15 984.653C89.9469 985.478 88.7614 986.287 87.5924 987.085L88.4386 988.324ZM91.9982 985.89L92.8463 987.127C151.816 946.7 254.585 872.894 325.273 824.95L324.431 823.708L323.589 822.467C252.995 870.347 149.927 944.358 91.15 984.653L91.9982 985.89ZM324.431 823.708L325.273 824.95C396.763 776.462 437.716 752.666 478.561 734.535L477.952 733.164L477.344 731.793C436.258 750.031 395.133 773.942 323.589 822.467L324.431 823.708ZM477.952 733.164L478.561 734.535C519.25 716.473 558.425 704.486 598.815 697.369L598.555 695.892L598.294 694.415C557.653 701.576 518.244 713.637 477.344 731.793L477.952 733.164ZM598.555 695.892L598.815 697.369C607.65 695.812 616.461 694.497 624.993 693.363L624.795 691.876L624.598 690.39C616.033 691.527 607.18 692.849 598.294 694.415L598.555 695.892ZM624.795 691.876L625.183 690.428C616.138 688.003 606.049 685.325 594.818 682.366L594.436 683.817L594.054 685.267C605.281 688.225 615.366 690.902 624.407 693.325L624.795 691.876ZM594.436 683.817L594.818 682.366C486.167 653.744 279.121 600.921 174.351 572.983L173.965 574.432L173.578 575.881C278.327 603.814 485.472 656.663 594.054 685.267L594.436 683.817ZM173.965 574.432L174.351 572.983C122.107 559.051 94.365 551.087 80.2314 545.981L79.7218 547.392L79.2122 548.803C93.4922 553.961 121.371 561.959 173.578 575.881L173.965 574.432ZM79.7218 547.392L80.2314 545.981C76.6402 544.684 73.5549 543.44 71.0072 542.196L70.3487 543.543L69.6903 544.891C72.3752 546.203 75.573 547.488 79.2122 548.803L79.7218 547.392ZM70.3487 543.543L71.0072 542.196C68.7505 541.093 65.6216 539.386 63.0167 536.743L61.9484 537.795L60.88 538.848C63.847 541.859 67.3442 543.745 69.6903 544.891L70.3487 543.543ZM61.9484 537.795L63.0168 536.743C59.8988 533.579 56.3592 527.65 58.1288 520.069L56.6681 519.728L55.2073 519.387C53.124 528.312 57.3259 535.242 60.88 538.848L61.9484 537.795ZM56.6681 519.728L58.1288 520.069C59.4119 514.573 63.0647 511.214 63.63 510.661L62.5812 509.588L61.5323 508.516C60.9426 509.093 56.7038 512.977 55.2074 519.387L56.6681 519.728ZM62.5812 509.588L63.6207 510.67L64.024 510.282L62.9845 509.201L61.945 508.119L61.5417 508.507L62.5812 509.588ZM62.9845 509.201L64.0147 510.291C68.0693 506.46 73.7189 503.149 79.5158 500.385L78.8702 499.031L78.2247 497.677C72.3214 500.491 66.3443 503.962 61.9543 508.11L62.9845 509.201ZM78.8702 499.031L79.5158 500.385C85.8376 497.371 93.5746 494.429 102.396 491.837L101.973 490.398L101.55 488.959C92.6016 491.588 84.7123 494.584 78.2247 497.677L78.8702 499.031ZM101.973 490.398L102.396 491.837C120.758 486.441 137.318 481.902 156.314 472.729L155.661 471.378L155.009 470.028C136.278 479.073 119.97 483.546 101.55 488.959L101.973 490.398ZM155.661 471.378L156.314 472.729C175.167 463.625 196.846 449.712 223.993 425.394L222.992 424.277L221.991 423.16C195.02 447.319 173.572 461.064 155.009 470.028L155.661 471.378ZM222.992 424.277L223.993 425.394C270.304 383.911 349.1 313.64 392.382 261.71L391.23 260.75L390.077 259.789C346.968 311.511 268.371 381.614 221.991 423.16L222.992 424.277ZM391.23 260.75L392.382 261.71C395.868 257.527 399.234 253.378 402.488 249.279L401.314 248.346L400.139 247.413C396.897 251.495 393.547 255.626 390.077 259.789L391.23 260.75ZM401.314 248.346L402.722 247.83C402.192 246.384 401.675 244.981 401.173 243.61L399.765 244.125L398.356 244.641C398.858 246.011 399.377 247.423 399.905 248.863L401.314 248.346ZM399.765 244.125L401.173 243.61C387.391 205.961 384.176 196.325 380.952 186.656L379.529 187.13L378.106 187.605C381.341 197.309 384.567 206.973 398.356 244.641L399.765 244.125ZM379.529 187.13L380.952 186.656C378.158 178.273 382.688 169.212 391.071 166.418L390.597 164.995L390.122 163.572C380.168 166.89 374.788 177.65 378.106 187.605L379.529 187.13ZM390.597 164.995L391.071 166.418C399.454 163.623 408.516 168.153 411.31 176.536L412.734 176.062L414.157 175.588C410.838 165.633 400.077 160.253 390.122 163.572L390.597 164.995ZM412.734 176.062L411.31 176.536C413.864 184.196 416.426 191.881 424.923 215.315L426.333 214.803L427.743 214.292C419.255 190.882 416.701 183.222 414.157 175.588L412.734 176.062ZM426.333 214.803L427.562 215.664C440.996 196.484 451.599 179.346 459.658 165.714L458.366 164.951L457.075 164.187C449.044 177.774 438.482 194.843 425.105 213.943L426.333 214.803ZM458.366 164.951L459.658 165.714C466.249 154.564 472.289 143.733 475.451 138.484L474.166 137.71L472.881 136.936C469.752 142.13 463.564 153.21 457.075 164.187L458.366 164.951ZM474.166 137.71L475.451 138.484C476.353 136.987 477.258 135.535 478.122 134.266L476.883 133.421L475.643 132.577C474.733 133.913 473.795 135.42 472.881 136.936L474.166 137.71ZM476.883 133.421L478.122 134.266C478.824 133.236 480.106 131.408 481.777 129.8L480.736 128.719L479.696 127.639C477.791 129.473 476.365 131.518 475.643 132.577L476.883 133.421ZM480.736 128.719L481.777 129.8C482.477 129.126 484.494 127.237 487.629 126.026L487.088 124.626L486.547 123.227C482.856 124.653 480.496 126.869 479.696 127.639L480.736 128.719ZM1493.23 8.84521L1494.43 9.75059C1495.81 7.92481 1501.86 0.883157 1511.9 3.64122L1512.3 2.19482L1512.7 0.748429C1500.74 -2.53703 1493.55 5.93554 1492.04 7.93984L1493.23 8.84521ZM1512.3 2.19482L1511.9 3.64121C1516.26 4.84052 1518.92 7.48673 1520.17 8.99825L1521.33 8.04053L1522.48 7.08281C1521.01 5.30641 1517.87 2.17011 1512.7 0.74844L1512.3 2.19482ZM1521.33 8.04053L1520.17 8.99824C1521.48 10.575 1522.24 12.0807 1522.63 12.9597L1524 12.3423L1525.37 11.7249C1524.91 10.7065 1524.02 8.93974 1522.48 7.08282L1521.33 8.04053ZM1524 12.3423L1522.63 12.9597C1523.96 15.9036 1524.43 19.1449 1524.65 20.7775L1526.13 20.5767L1527.62 20.3758C1527.4 18.7396 1526.9 15.1069 1525.37 11.7249L1524 12.3423ZM1526.13 20.5767L1524.65 20.7775C1524.97 23.1724 1525.24 26.2884 1525.46 30.1866L1526.96 30.1011L1528.45 30.0155C1528.23 26.0837 1527.96 22.8808 1527.62 20.3758L1526.13 20.5767ZM1526.96 30.1011L1526.93 31.6008C1530.64 31.6762 1535.72 31.8048 1543.19 32.0301L1543.23 30.5308L1543.28 29.0314C1535.81 28.806 1530.72 28.677 1526.99 28.6014L1526.96 30.1011ZM1543.23 30.5308L1543.19 32.0301C1560.59 32.5556 1591.61 33.6186 1615.29 35.793L1615.42 34.2993L1615.56 32.8056C1591.78 30.6216 1560.67 29.5567 1543.28 29.0314L1543.23 30.5308ZM1615.42 34.2993L1615.29 35.793C1639.54 38.0207 1655.6 41.4246 1675.38 48.3613L1675.87 46.9458L1676.37 45.5303C1656.33 38.5023 1640.03 35.0529 1615.56 32.8056L1615.42 34.2993ZM1675.87 46.9458L1675.38 48.3613C1683.72 51.2857 1688.1 60.4166 1685.18 68.7551L1686.6 69.2515L1688.01 69.7478C1691.48 59.8459 1686.27 49.0031 1676.37 45.5303L1675.87 46.9458ZM1686.6 69.2515L1685.18 68.7551C1682.26 77.0935 1673.13 81.4828 1664.79 78.5586L1664.29 79.9741L1663.79 81.3896C1673.7 84.862 1684.54 79.6499 1688.01 69.7479L1686.6 69.2515ZM1664.29 79.9741L1664.79 78.5586C1647.78 72.5963 1634.34 69.6779 1612.36 67.6591L1612.22 69.1528L1612.09 70.6465C1633.85 72.6458 1647.05 75.5186 1663.79 81.3896L1664.29 79.9741ZM1612.22 69.1528L1612.36 67.6591C1589.8 65.5871 1559.71 64.543 1542.22 64.0148L1542.17 65.5142L1542.13 67.0135C1559.63 67.5419 1589.63 68.5841 1612.09 70.6465L1612.22 69.1528ZM1542.17 65.5142L1542.22 64.0148C1535.54 63.8133 1530.84 63.6906 1527.35 63.6151L1527.31 65.1147L1527.28 66.6144C1530.76 66.6896 1535.46 66.8121 1542.13 67.0135L1542.17 65.5142ZM1527.31 65.1147L1525.81 65.063C1524.99 88.9945 1521.79 130.402 1511.67 215.556L1513.16 215.733L1514.65 215.91C1524.78 130.736 1527.98 89.2276 1528.81 65.1665L1527.31 65.1147ZM1513.16 215.733L1511.67 215.556C1497 339.02 1468.53 548.853 1452.65 655.457L1454.14 655.678L1455.62 655.899C1471.5 549.269 1499.97 339.407 1514.65 215.91L1513.16 215.733ZM1454.14 655.678L1452.65 655.457C1444.74 708.57 1439.69 737.047 1436 751.892L1437.45 752.254L1438.91 752.616C1442.64 737.609 1447.72 708.989 1455.62 655.899L1454.14 655.678ZM1437.45 752.254L1436 751.892C1435.06 755.662 1434.13 758.879 1433.17 761.555L1434.58 762.064L1435.99 762.573C1437 759.764 1437.96 756.438 1438.91 752.616L1437.45 752.254ZM1434.58 762.064L1433.17 761.555C1432.28 763.996 1431.01 767.041 1429 769.734L1430.2 770.631L1431.4 771.529C1433.68 768.482 1435.07 765.11 1435.99 762.573L1434.58 762.064ZM1430.2 770.631L1429 769.734C1426.95 772.471 1422.19 777.307 1414.4 777.255L1414.39 778.755L1414.38 780.255C1423.55 780.316 1429.1 774.604 1431.4 771.529L1430.2 770.631ZM1414.39 778.755L1414.4 777.255C1407.8 777.211 1403.5 773.462 1402.55 772.64L1401.57 773.778L1400.59 774.915C1401.64 775.816 1406.64 780.204 1414.38 780.255L1414.39 778.755ZM1401.57 773.778L1402.55 772.64C1394.3 765.549 1385.91 753.234 1376.98 732.94L1375.61 733.544L1374.24 734.148C1383.23 754.601 1391.84 767.394 1400.59 774.915L1401.57 773.778ZM1375.61 733.544L1376.98 732.94C1367.94 712.37 1357.78 682.292 1346.71 638.26L1345.25 638.625L1343.8 638.991C1354.89 683.114 1365.1 713.368 1374.24 734.148L1375.61 733.544ZM1345.25 638.625L1346.71 638.26C1330.49 573.752 1307.26 470.277 1294.6 413.259L1293.13 413.584L1291.67 413.91C1304.33 470.921 1327.57 574.436 1343.8 638.991L1345.25 638.625ZM1293.13 413.584L1294.6 413.259C1281.91 356.166 1279.78 345.499 1277.63 334.797L1276.16 335.091L1274.69 335.385C1276.84 346.119 1278.98 356.809 1291.67 413.91L1293.13 413.584ZM1276.16 335.091L1277.63 334.797C1275.9 326.132 1281.52 317.703 1290.19 315.97L1289.89 314.5L1289.6 313.029C1279.31 315.087 1272.64 325.096 1274.69 335.385L1276.16 335.091ZM1289.89 314.5L1290.19 315.97C1298.85 314.238 1307.28 319.858 1309.01 328.522L1310.48 328.228L1311.96 327.934C1309.9 317.645 1299.89 310.971 1289.6 313.029L1289.89 314.5ZM1310.48 328.228L1309.01 328.522C1311.09 338.893 1313.17 349.301 1325.83 406.319L1327.3 405.994L1328.76 405.668C1316.1 348.657 1314.02 338.273 1311.96 327.934L1310.48 328.228ZM1327.3 405.994L1325.83 406.319C1338.52 463.414 1361.65 566.452 1377.74 630.457L1379.2 630.091L1380.65 629.726C1364.57 565.768 1341.45 462.77 1328.76 405.668L1327.3 405.994ZM1379.2 630.091L1377.74 630.457C1388.57 673.526 1398.21 701.726 1406.28 720.057L1407.65 719.453L1409.02 718.849C1401.05 700.728 1391.46 672.704 1380.65 629.726L1379.2 630.091ZM1407.65 719.453L1406.28 720.057C1406.47 720.502 1406.67 720.941 1406.86 721.372L1408.23 720.759L1409.6 720.147C1409.41 719.72 1409.21 719.287 1409.02 718.849L1407.65 719.453ZM1408.23 720.759L1409.7 721.028C1412.57 705.321 1416.23 682.802 1421 650.744L1419.52 650.523L1418.03 650.302C1413.26 682.347 1409.61 704.83 1406.75 720.49L1408.23 720.759ZM1419.52 650.523L1421 650.744C1436.83 544.416 1465.26 334.899 1479.89 211.779L1478.41 211.602L1476.92 211.425C1462.29 334.512 1433.86 544.001 1418.03 650.302L1419.52 650.523ZM1478.41 211.602L1479.89 211.779C1492.25 107.835 1494.09 70.5388 1494.07 51.1188L1492.57 51.1206L1491.07 51.1224C1491.09 70.3506 1489.27 107.495 1476.92 211.425L1478.41 211.602ZM1492.57 51.1206L1493.55 49.9898C1489.67 46.6062 1487.49 41.4203 1488.18 35.9326L1486.69 35.7466L1485.2 35.5606C1484.38 42.0805 1486.98 48.24 1491.58 52.2514L1492.57 51.1206ZM1486.69 35.7466L1488.18 35.9326C1488.71 31.6767 1489.28 27.1126 1489.86 23.4245L1488.38 23.1909L1486.9 22.9574C1486.31 26.7029 1485.73 31.3197 1485.2 35.5605L1486.69 35.7466ZM1488.38 23.1909L1489.86 23.4245C1490.15 21.5959 1490.48 19.6804 1490.88 17.9762L1489.42 17.6343L1487.96 17.2924C1487.54 19.1032 1487.19 21.1033 1486.9 22.9574L1488.38 23.1909ZM1489.42 17.6343L1490.88 17.9762C1491.08 17.1311 1491.35 16.0889 1491.72 15.0147L1490.3 14.5308L1488.88 14.0468C1488.47 15.2484 1488.17 16.3944 1487.96 17.2924L1489.42 17.6343ZM1490.3 14.5308L1491.72 15.0147C1491.98 14.2393 1492.71 12.1484 1494.23 10.0156L1493.01 9.14502L1491.79 8.27439C1490.01 10.7681 1489.17 13.191 1488.88 14.0468L1490.3 14.5308ZM1493.01 9.14502L1494.22 10.0343L1494.44 9.73448L1493.23 8.84521L1492.02 7.95595L1491.8 8.25576L1493.01 9.14502ZM1118.54 346.984L1118.88 348.445C1125.55 346.897 1131.96 348.128 1137.52 350.862L1138.19 349.516L1138.85 348.17C1132.79 345.189 1125.66 343.791 1118.2 345.523L1118.54 346.984ZM1138.19 349.516L1137.51 350.856L1138.07 351.138L1138.75 349.797L1139.42 348.457L1138.86 348.176L1138.19 349.516ZM1138.75 349.797L1138.05 351.126L1138.57 351.398L1139.26 350.069L1139.96 348.74L1139.44 348.468L1138.75 349.797ZM1139.26 350.069L1138.56 351.391C1143.69 354.136 1148.22 358.216 1152.07 362.34L1153.16 361.316L1154.26 360.292C1150.3 356.058 1145.52 351.712 1139.97 348.746L1139.26 350.069ZM1153.16 361.316L1152.07 362.34C1156.18 366.744 1160.27 372.022 1164.28 377.757L1165.51 376.898L1166.74 376.039C1162.69 370.235 1158.5 364.834 1154.26 360.292L1153.16 361.316ZM1165.51 376.898L1164.28 377.757C1172.28 389.224 1180.63 403.542 1188.8 418.702L1190.12 417.991L1191.44 417.28C1183.25 402.079 1174.84 387.645 1166.74 376.039L1165.51 376.898ZM1190.12 417.991L1188.8 418.702C1205.12 449.017 1221.57 484.353 1233.87 510.05L1235.23 509.403L1236.58 508.755C1224.3 483.104 1207.81 447.676 1191.44 417.28L1190.12 417.991ZM1235.23 509.403L1233.87 510.05C1249.62 542.949 1260.65 563.159 1268.06 575.378L1269.34 574.6L1270.62 573.822C1263.28 561.718 1252.3 541.602 1236.58 508.755L1235.23 509.403ZM1269.34 574.6L1268.06 575.378C1273.69 584.667 1276.88 588.741 1278.09 590.174L1279.23 589.21L1280.38 588.246C1279.3 586.959 1276.2 583.018 1270.62 573.822L1269.34 574.6ZM1279.23 589.21L1278.2 590.297C1278.42 590.507 1278.62 590.696 1278.8 590.867L1279.84 589.789L1280.88 588.711C1280.7 588.531 1280.49 588.335 1280.27 588.124L1279.23 589.21ZM1279.84 589.789L1278.8 590.867C1279.13 591.186 1279.7 591.749 1280.18 592.273L1281.29 591.26L1282.4 590.247C1281.85 589.647 1281.21 589.026 1280.88 588.71L1279.84 589.789ZM1281.29 591.26L1280.19 592.277C1280.21 592.299 1280.78 592.914 1281.38 593.735L1282.59 592.853L1283.81 591.971C1283.45 591.485 1283.11 591.063 1282.85 590.76C1282.72 590.608 1282.61 590.483 1282.53 590.394C1282.49 590.349 1282.46 590.313 1282.43 590.287C1282.41 590.264 1282.39 590.238 1282.39 590.244L1281.29 591.26ZM1282.59 592.853L1281.38 593.735C1281.56 593.977 1281.93 594.496 1282.33 595.196L1283.63 594.451L1284.93 593.705C1284.45 592.875 1284.02 592.258 1283.81 591.971L1282.59 592.853ZM1283.63 594.451L1282.33 595.196C1282.46 595.426 1283.77 597.589 1284.25 600.68L1285.73 600.449L1287.22 600.217C1286.64 596.556 1285.1 593.995 1284.93 593.705L1283.63 594.451ZM1285.73 600.449L1284.24 600.59C1284.32 601.468 1284.22 603.225 1283.92 605.222C1283.62 607.201 1283.15 609.233 1282.58 610.66L1283.97 611.218L1285.37 611.777C1286.06 610.042 1286.57 607.753 1286.89 605.669C1287.2 603.604 1287.34 601.557 1287.23 600.308L1285.73 600.449ZM1283.97 611.218L1282.74 610.369C1281.66 611.94 1279.61 613.848 1277.33 615.517C1275.05 617.192 1272.76 618.468 1271.28 618.909L1271.71 620.346L1272.14 621.783C1274.11 621.196 1276.73 619.681 1279.11 617.936C1281.49 616.184 1283.85 614.042 1285.21 612.068L1283.97 611.218ZM1271.71 620.346L1271.53 618.857C1269.41 619.118 1265.89 618.943 1264.67 618.704L1264.38 620.176L1264.09 621.648C1265.63 621.951 1269.48 622.133 1271.89 621.835L1271.71 620.346ZM1264.38 620.176L1264.77 618.727C1263.95 618.51 1262.57 618.038 1262.06 617.827L1261.49 619.214L1260.92 620.601C1261.56 620.864 1263.06 621.377 1264 621.626L1264.38 620.176ZM1261.49 619.214L1262.08 617.838C1260.43 617.122 1259.25 616.252 1259.22 616.231L1258.35 617.456L1257.49 618.68C1257.48 618.677 1257.59 618.759 1257.77 618.875C1257.94 618.992 1258.18 619.151 1258.48 619.334C1259.07 619.698 1259.91 620.166 1260.89 620.591L1261.49 619.214ZM1258.35 617.456L1259.22 616.229C1258.87 615.986 1258.6 615.779 1258.48 615.677L1257.55 616.854L1256.62 618.031C1256.77 618.151 1257.08 618.396 1257.49 618.682L1258.35 617.456ZM1257.55 616.854L1258.48 615.677C1258.2 615.459 1257.98 615.269 1257.87 615.174L1256.89 616.312L1255.91 617.45C1256.04 617.557 1256.3 617.777 1256.62 618.031L1257.55 616.854ZM1256.89 616.312L1257.87 615.174C1257.1 614.514 1256.27 613.715 1255.37 612.756L1254.28 613.782L1253.18 614.807C1254.14 615.83 1255.05 616.707 1255.91 617.45L1256.89 616.312ZM1254.28 613.782L1255.3 612.687C1254.71 612.13 1253.95 611.431 1253.03 610.593L1252.02 611.701L1251.01 612.809C1251.92 613.637 1252.66 614.327 1253.25 614.877L1254.28 613.782ZM1252.02 611.701L1253.03 610.593C1249.55 607.413 1243.9 602.39 1236.05 595.759L1235.08 596.905L1234.11 598.051C1241.93 604.659 1247.56 609.656 1251.01 612.809L1252.02 611.701ZM1235.08 596.905L1236.05 595.759C1220.35 582.501 1195.94 562.854 1162.62 538.691L1161.74 539.905L1160.86 541.119C1194.11 565.239 1218.47 584.839 1234.11 598.051L1235.08 596.905ZM1161.74 539.905L1162.62 538.691C1147.6 527.797 1129.8 517.087 1111.75 507.078L1111.02 508.39L1110.3 509.702C1128.29 519.683 1145.98 530.326 1160.86 541.119L1161.74 539.905ZM1111.02 508.39L1109.53 508.316C1108.86 521.753 1108.31 532.492 1107.8 540.753L1109.3 540.845L1110.79 540.937C1111.3 532.656 1111.86 521.901 1112.52 508.464L1111.02 508.39ZM1109.3 540.845L1107.8 540.753C1107.3 548.854 1106.83 555.052 1106.3 559.189L1107.78 559.38L1109.27 559.572C1109.82 555.323 1110.3 549.034 1110.79 540.937L1109.3 540.845ZM1107.78 559.38L1106.3 559.189C1106.07 560.977 1105.69 563.57 1104.92 565.891L1106.35 566.362L1107.77 566.832C1108.64 564.214 1109.04 561.372 1109.27 559.572L1107.78 559.38ZM1106.35 566.362L1104.92 565.892C1104.78 566.328 1103.61 570.328 1099.99 573.538L1100.99 574.66L1101.99 575.781C1106.24 571.998 1107.61 567.312 1107.77 566.832L1106.35 566.362ZM1100.99 574.66L1099.99 573.538C1097.63 575.638 1093.38 578.095 1087.75 577.589L1087.61 579.083L1087.48 580.578C1094.17 581.178 1099.21 578.253 1101.99 575.781L1100.99 574.66ZM1087.61 579.083L1087.75 577.589C1082.56 577.124 1079.19 574.384 1077.67 572.86L1076.61 573.92L1075.55 574.981C1077.34 576.772 1081.32 580.025 1087.48 580.578L1087.61 579.083ZM1076.61 573.92L1077.67 572.86C1072.75 567.941 1071.7 560.614 1074.53 554.669L1073.18 554.024L1071.82 553.379C1068.46 560.435 1069.7 569.137 1075.55 574.981L1076.61 573.92ZM1073.18 554.024L1074.67 554.194C1075.02 551.136 1075.41 546.169 1075.86 538.796L1074.36 538.705L1072.86 538.613C1072.41 545.98 1072.03 550.879 1071.69 553.853L1073.18 554.024ZM1074.36 538.705L1075.86 538.796C1076.55 527.568 1077.33 511.675 1078.37 490.317L1076.87 490.245L1075.37 490.172C1074.33 511.536 1073.55 527.408 1072.86 538.613L1074.36 538.705ZM1076.87 490.245L1077.55 488.91C1060.77 480.297 1045.36 472.702 1033.27 466.449L1032.58 467.781L1031.89 469.113C1043.92 475.338 1059.52 483.028 1076.18 491.579L1076.87 490.245ZM1032.58 467.781L1033.27 466.449C1017.99 458.542 1008.7 453.876 1004.2 451.53L1003.51 452.86L1002.81 454.19C1007.28 456.522 1016.7 461.248 1031.89 469.113L1032.58 467.781ZM1003.51 452.86L1004.2 451.53C1002.11 450.439 999.786 449.211 998.052 447.999L997.192 449.228L996.333 450.457C998.255 451.801 1000.76 453.117 1002.81 454.19L1003.51 452.86ZM997.192 449.228L998.052 447.999C997.424 447.56 994.907 445.834 992.986 442.766L991.715 443.562L990.443 444.358C992.7 447.964 995.641 449.974 996.333 450.457L997.192 449.228ZM991.715 443.562L992.986 442.766C991.832 440.922 990.71 438.315 990.502 435.075L989.005 435.171L987.508 435.267C987.754 439.102 989.083 442.185 990.443 444.358L991.715 443.562ZM989.005 435.171L990.502 435.075C990.294 431.825 991.084 429.147 991.907 427.309L990.538 426.696L989.169 426.083C988.198 428.251 987.261 431.419 987.508 435.267L989.005 435.171ZM990.538 426.696L991.907 427.309C994.89 420.648 1000.9 418.486 1002.42 417.964L1001.93 416.545L1001.44 415.127C999.763 415.704 992.69 418.22 989.169 426.083L990.538 426.696ZM1001.93 416.545L1002.42 417.964C1004.93 417.102 1007.43 416.785 1009.51 416.672L1009.42 415.174L1009.34 413.677C1007.11 413.798 1004.31 414.143 1001.44 415.127L1001.93 416.545ZM1009.42 415.174L1009.51 416.672C1013.76 416.44 1018.92 416.934 1025.02 418.132L1025.3 416.66L1025.59 415.188C1019.36 413.963 1013.94 413.426 1009.34 413.677L1009.42 415.174ZM1025.3 416.66L1025.02 418.132C1032.04 419.511 1037.08 425.29 1037.83 432.046L1039.33 431.879L1040.82 431.712C1039.92 423.693 1033.94 416.827 1025.59 415.188L1025.3 416.66ZM1039.33 431.879L1038.64 433.214C1041.41 434.635 1044.5 436.23 1047.98 438.029L1048.67 436.697L1049.36 435.365C1045.88 433.564 1042.78 431.968 1040.01 430.545L1039.33 431.879ZM1048.67 436.697L1047.98 438.029C1056.11 442.235 1066.49 447.401 1078.11 453.27L1078.78 451.931L1079.46 450.592C1067.82 444.71 1057.47 439.562 1049.36 435.365L1048.67 436.697ZM1078.78 451.931L1080.28 452.024C1081.62 430.333 1084.45 405.641 1089.81 386.561L1088.36 386.156L1086.92 385.75C1081.48 405.138 1078.63 430.082 1077.29 451.838L1078.78 451.931ZM1088.36 386.156L1089.81 386.561C1092.68 376.32 1096.88 365.432 1103.63 357.874L1102.51 356.875L1101.39 355.875C1094.16 363.966 1089.82 375.408 1086.92 385.75L1088.36 386.156ZM1102.51 356.875L1103.63 357.874C1107.21 353.865 1112.23 349.99 1118.88 348.445L1118.54 346.984L1118.2 345.523C1110.77 347.248 1105.25 351.559 1101.39 355.875L1102.51 356.875ZM664.942 400.202L663.525 399.712C662.696 402.109 661.847 404.633 660.976 407.277L662.401 407.747L663.825 408.216C664.693 405.583 665.537 403.073 666.36 400.691L664.942 400.202ZM662.401 407.747L660.976 407.277C657.364 418.238 653.103 432.067 648.921 444.468L650.342 444.948L651.763 445.427C655.936 433.055 660.253 419.055 663.825 408.216L662.401 407.747ZM650.342 444.948L648.921 444.468C645.588 454.35 642.39 463.756 639.332 472.689L640.751 473.174L642.17 473.66C645.229 464.723 648.429 455.314 651.763 445.427L650.342 444.948ZM640.751 473.174L639.758 474.299C645.057 478.976 650.125 483.55 654.841 487.936L655.862 486.837L656.884 485.739C652.145 481.332 647.057 476.74 641.744 472.05L640.751 473.174ZM655.862 486.837L654.841 487.936C677.84 509.325 692.987 525.854 705.656 543.8L706.881 542.935L708.106 542.07C695.275 523.893 679.967 507.207 656.884 485.739L655.862 486.837ZM706.881 542.935L708.353 542.649C704.779 524.276 700.992 505.398 697.1 487.127L695.633 487.44L694.166 487.752C698.053 506 701.836 524.86 705.409 543.221L706.881 542.935ZM695.633 487.44L697.1 487.127C692.054 463.44 686.87 440.957 681.794 422.057L680.345 422.446L678.896 422.835C683.953 441.663 689.125 464.089 694.166 487.752L695.633 487.44ZM680.345 422.446L681.794 422.057C679.816 414.696 677.896 408.04 676.053 402.166L674.622 402.615L673.191 403.064C675.018 408.891 676.928 415.505 678.896 422.835L680.345 422.446ZM674.622 402.615L674.943 401.149C670.961 400.278 668.057 399.515 665.346 398.757L664.942 400.202L664.539 401.646C667.291 402.416 670.252 403.194 674.301 404.08L674.622 402.615ZM1126.32 383.9L1124.97 383.237C1123.66 385.906 1122.14 389.807 1120.62 395.212L1122.06 395.618L1123.51 396.023C1124.99 390.749 1126.45 387.029 1127.66 384.563L1126.32 383.9ZM1122.06 395.618L1120.62 395.212C1115.65 412.893 1112.95 438.158 1111.84 460.764L1113.34 460.837L1114.84 460.911C1115.94 438.363 1118.64 413.371 1123.51 396.023L1122.06 395.618ZM1113.34 460.837L1111.84 460.764C1111.7 463.754 1111.55 466.671 1111.42 469.516L1112.91 469.589L1114.41 469.662C1114.55 466.817 1114.69 463.9 1114.84 460.911L1113.34 460.837ZM1112.91 469.589L1112.21 470.913C1136.09 483.662 1161.13 498.082 1181.41 512.786L1182.29 511.572L1183.17 510.358C1162.73 495.532 1137.54 481.036 1113.62 468.266L1112.91 469.589ZM1182.29 511.572L1181.41 512.786C1189.77 518.855 1197.6 524.652 1204.89 530.146L1205.79 528.949L1206.69 527.751C1199.39 522.245 1191.55 516.438 1183.17 510.358L1182.29 511.572ZM1205.79 528.949L1207.14 528.297C1206.44 526.842 1205.73 525.367 1205.01 523.866L1203.66 524.513L1202.3 525.161C1203.02 526.666 1203.74 528.146 1204.44 529.6L1205.79 528.949ZM1203.66 524.513L1205.01 523.866C1192.47 497.664 1176.48 463.322 1160.62 433.875L1159.3 434.586L1157.98 435.298C1173.8 464.663 1189.74 498.912 1202.3 525.161L1203.66 524.513ZM1159.3 434.586L1160.62 433.875C1152.69 419.154 1145.02 406.069 1138.04 396.074L1136.81 396.932L1135.58 397.791C1142.46 407.648 1150.08 420.618 1157.98 435.298L1159.3 434.586ZM1136.81 396.932L1138.04 396.074C1134.55 391.078 1131.41 387.109 1128.68 384.184L1127.59 385.208L1126.49 386.231C1129.09 389.018 1132.14 392.864 1135.58 397.791L1136.81 396.932ZM1127.59 385.208L1128.68 384.184C1128.22 383.684 1127.78 383.237 1127.38 382.835L1126.32 383.9L1125.26 384.964C1125.64 385.34 1126.05 385.761 1126.49 386.231L1127.59 385.208ZM832.655 427.127L831.183 427.416C832.803 435.687 834.524 444.539 836.289 453.695L837.762 453.412L839.235 453.128C837.469 443.968 835.748 435.113 834.127 426.839L832.655 427.127ZM837.762 453.412L837.748 454.912C859.091 455.106 883.611 455.481 909.979 455.094L909.957 453.594L909.935 452.094C883.613 452.481 859.141 452.107 837.776 451.912L837.762 453.412ZM909.957 453.594L909.979 455.094C917.741 454.98 924.181 454.689 929.561 454.287L929.449 452.792L929.338 451.296C924.027 451.692 917.647 451.981 909.935 452.094L909.957 453.594ZM929.449 452.792L929.948 451.377C913.794 445.677 891.172 438.991 861.365 430.94L860.974 432.388L860.583 433.836C890.373 441.883 912.906 448.545 928.95 454.206L929.449 452.792ZM860.974 432.388L861.272 430.918C852.459 429.128 842.884 427.367 832.91 425.649L832.655 427.127L832.401 428.606C842.354 430.32 851.899 432.076 860.675 433.858L860.974 432.388ZM1389.11 365.246V366.746C1397.95 366.746 1405.11 373.909 1405.11 382.746L1406.61 382.746L1408.11 382.746C1408.11 372.252 1399.6 363.746 1389.11 363.746V365.246ZM1406.61 382.746H1405.11C1405.11 391.582 1397.95 398.746 1389.11 398.746V400.246V401.746C1399.6 401.746 1408.11 393.239 1408.11 382.746H1406.61ZM1389.11 400.246V398.746H1382.72V400.246V401.746H1389.11V400.246ZM1382.72 400.246V398.746C1373.89 398.745 1366.72 391.582 1366.72 382.746H1365.22H1363.72C1363.72 393.239 1372.23 401.745 1382.72 401.746V400.246ZM1365.22 382.746L1366.72 382.746C1366.72 373.909 1373.89 366.746 1382.72 366.746V365.246V363.746C1372.23 363.746 1363.72 372.252 1363.72 382.746L1365.22 382.746ZM1382.72 365.246V366.746H1389.11V365.246V363.746H1382.72V365.246ZM470.828 211.364L469.569 210.549C461.138 223.589 451.2 238.111 439.639 253.519L440.839 254.419L442.039 255.32C453.647 239.848 463.625 225.268 472.088 212.178L470.828 211.364ZM440.839 254.419L439.432 254.939C448.174 278.625 458.737 306.951 468.219 331.728L469.62 331.192L471.021 330.656C461.545 305.895 450.986 277.581 442.246 253.9L440.839 254.419ZM469.62 331.192L471.12 331.198C471.157 321.563 471.176 311.326 471.201 300.829L469.701 300.826L468.201 300.822C468.176 311.321 468.157 321.554 468.12 331.186L469.62 331.192ZM469.701 300.826L471.201 300.829C471.271 271.499 471.399 240.287 472.19 215.473L470.691 215.425L469.191 215.378C468.399 240.244 468.271 271.5 468.201 300.822L469.701 300.826ZM470.691 215.425L472.19 215.473C472.234 214.1 472.28 212.748 472.327 211.418L470.828 211.364L469.329 211.31C469.281 212.645 469.235 214 469.191 215.378L470.691 215.425Z" fill="#0C8CE9" fill-opacity="0.83"/>
</svg>
